<svg width="477" height="338" viewBox="0 0 477 338" fill="none" xmlns="http://www.w3.org/2000/svg">
<g clip-path="url(#clip0_11_23)">
<path opacity="0.1" d="M158.583 337.81C181.812 337.81 200.644 334.784 200.644 331.052C200.644 327.32 181.812 324.294 158.583 324.294C135.353 324.294 116.522 327.32 116.522 331.052C116.522 334.784 135.353 337.81 158.583 337.81Z" fill="#0077B6"/>
<path opacity="0.1" d="M387.219 338C416.206 338 439.705 334.974 439.705 331.242C439.705 327.51 416.206 324.484 387.219 324.484C358.232 324.484 334.734 327.51 334.734 331.242C334.734 334.974 358.232 338 387.219 338Z" fill="#0077B6"/>
<path opacity="0.1" d="M5.97414 146.04H49.7832V205.773H9.18137C9.07345 206.387 8.96986 207.004 8.85762 207.622H49.7832V255.795C49.7098 255.774 49.645 255.748 49.576 255.722C48.4191 255.264 47.2709 254.78 46.1227 254.262L45.3889 253.93C44.2378 253.386 43.0867 252.81 41.9356 252.202C41.5342 251.991 41.1327 251.771 40.7356 251.546C34.3453 247.965 28.54 243.427 23.5211 238.091C23.3743 237.948 23.2362 237.797 23.0894 237.659C22.3901 236.899 21.7038 236.13 21.039 235.344L20.3052 234.481C19.5196 233.518 18.7599 232.529 18.0217 231.527C17.9138 231.38 17.8102 231.233 17.698 231.095C14.696 226.931 12.2034 222.423 10.2735 217.666C10.213 217.523 10.1612 217.368 10.1051 217.234C9.51231 215.708 8.98712 214.168 8.52956 212.613C8.331 211.961 8.14107 211.318 7.97704 210.64C7.91661 210.441 7.86481 210.247 7.81733 210.053C5.3655 200.479 5.07629 190.535 5.07629 180.659C5.07629 179.506 5.07629 178.349 5.07629 177.204C5.07629 173.21 5.12378 169.19 5.19284 165.174C5.19284 164.133 5.23601 163.097 5.25759 162.052C5.31802 159.401 5.40435 156.749 5.51659 154.098C5.54249 153.36 5.57702 152.625 5.61587 151.891C5.61587 151.468 5.63745 151.045 5.68062 150.622C5.78421 149.085 5.87055 147.56 5.97414 146.04Z" fill="#0077B6"/>
<path opacity="0.1" d="M49.7832 79.532H25.7527C29.659 73.4156 33.9271 67.5382 38.5342 61.9311C42.104 57.5439 45.8723 53.2689 49.7832 49.1494V79.532Z" fill="#0077B6"/>
<path opacity="0.1" d="M49.7832 81.3801V144.192H6.1123C6.1123 144.011 6.14252 143.825 6.15547 143.644C6.19432 143.147 6.23317 142.651 6.27633 142.158C6.32382 141.58 6.37562 140.997 6.43173 140.431C6.48785 139.865 6.54828 139.174 6.61303 138.548C6.67778 137.922 6.73821 137.287 6.81159 136.661C6.88497 136.035 6.94972 135.409 7.02742 134.787C7.10512 134.165 7.17419 133.535 7.2562 132.913C7.32095 132.395 7.39001 131.881 7.45908 131.363C7.55836 130.633 7.66196 129.899 7.77419 129.174C7.77419 129.066 7.80441 128.953 7.82167 128.85C8.60953 123.539 9.68304 118.275 11.0375 113.08C12.4553 107.63 14.2659 102.29 16.4548 97.1026C18.7813 91.6754 21.5053 86.4275 24.6046 81.4017L49.7832 81.3801Z" fill="#0077B6"/>
<path opacity="0.1" d="M60.2423 146.036V205.773H153.813V146.036H60.2423ZM60.2423 207.617V258.917C60.7775 259.029 61.3085 259.137 61.8351 259.228C62.5516 259.366 63.2639 259.491 63.9934 259.599C64.1315 259.621 64.274 259.643 64.425 259.656C64.7099 259.703 65.0035 259.742 65.2884 259.781C66.0092 259.88 66.7258 259.962 67.4466 260.027C67.7877 260.061 68.133 260.092 68.4783 260.118L69.3114 260.182C69.7646 260.217 70.2136 260.243 70.6582 260.256C70.9344 260.256 71.2107 260.282 71.4956 260.29C71.7114 260.29 71.9273 260.29 72.1517 260.29C72.3762 260.29 72.6956 260.29 72.9676 260.29C73.3388 260.29 73.71 260.29 74.0769 260.29H74.5733C74.9446 260.29 75.3158 260.29 75.6827 260.256H75.7086C75.9633 260.256 76.2223 260.256 76.4813 260.221C76.5531 260.225 76.6252 260.225 76.6971 260.221C76.9129 260.221 77.1287 260.221 77.3359 260.191H77.487L78.9331 260.079C79.4079 260.036 79.887 259.979 80.3705 259.928L81.3547 259.811C85.3587 259.25 89.3181 258.407 93.2037 257.289C101.932 254.854 110.47 251.447 119.194 248.951C130.473 245.734 142.935 244.153 153.834 248.087V207.617H60.2423ZM153.813 79.5319V0.00431527C143.568 -0.106715 133.352 1.09192 123.411 3.57112C99.7174 9.52587 78.4583 22.4415 60.2423 38.9369V79.5276H64.9387V81.3715H60.2423V144.192H153.813V81.3758H84.2209V79.5319H153.813ZM274 52.6687C268.138 52.4614 262.31 50.6046 257.04 47.7373C246.96 42.2532 238.91 33.7853 229.914 26.6388C211.223 11.754 188.043 2.77226 164.263 0.544086V79.5319H297.84L298.172 79.1822L274 52.6687ZM286.168 50.5096L299.07 64.6731V46.7959C294.749 47.3314 290.964 48.6053 286.185 50.4923L286.168 50.5096ZM299.07 271.656V207.617H271.578C271.505 207.345 271.431 207.069 271.345 206.793C271.427 207.069 271.496 207.345 271.574 207.617H164.281V253.93C165.299 254.685 166.305 255.48 167.302 256.287C168.377 257.151 169.439 258.062 170.505 258.956L171.58 259.846C172.094 260.277 172.612 260.709 173.134 261.115C174.17 261.956 175.216 262.785 176.272 263.602C176.794 264.034 177.33 264.423 177.861 264.829C186.29 271.276 195.181 277.093 204.464 282.235C206.544 283.387 208.644 284.511 210.762 285.608C212.173 286.329 213.593 287.046 215.018 287.741C217.159 288.786 219.317 289.793 221.493 290.764C241.55 299.771 262.76 305.951 284.515 309.129C289.346 309.843 294.197 310.404 299.066 310.813V271.651H299.498L299.07 271.656ZM164.281 81.3758V144.192H299.088V81.3758H164.281ZM164.281 146.036V205.773H299.088V146.036H164.281ZM309.551 46.7182V66.6595L326.019 48.5837C320.563 47.7028 315.073 47.0737 309.551 46.6966V46.7182ZM309.551 146.058V205.773H440.667V146.036L309.551 146.058ZM440.188 276.397L440.65 207.617H309.551V311.499C317.996 311.854 326.455 311.753 334.889 311.197H335.036C339.065 310.944 343.075 310.575 347.066 310.092H347.157C368.451 307.613 389.273 302.055 408.971 293.592L440.188 276.397ZM465.95 155.873C465.457 154.711 464.944 153.558 464.421 152.418C463.446 150.259 462.414 148.161 461.352 146.062H451.122V205.773H476.987C476.974 188.864 472.696 171.591 465.962 155.851L465.95 155.873ZM451.122 207.639V266.798C458.408 259.811 464.564 251.818 468.997 242.681C474.328 231.678 476.767 219.764 476.965 207.63L451.122 207.639ZM451.122 128.651V144.196H460.394C457.589 138.845 454.498 133.649 451.135 128.629L451.122 128.651ZM362.2 58.4377C361.518 58.1786 360.836 57.9152 360.15 57.6604C352.911 54.9863 345.515 52.7626 338.002 51.0018L312.801 78.6683L312.318 79.1822L312.642 79.5363H402.332C389.84 70.9347 376.374 63.8451 362.213 58.4161L362.2 58.4377ZM404.96 81.3974H311.39L309.551 83.0815V144.192H325.669H325.695H440.685V114.591C430.283 102.006 418.277 90.8393 404.973 81.3758L404.96 81.3974Z" fill="#0077B6"/>
<path opacity="0.1" d="M49.7832 113.062V144.192H6.1123C6.1123 144.011 6.14252 143.825 6.15547 143.644C6.19432 143.147 6.23317 142.651 6.27633 142.158C6.32382 141.58 6.37562 140.997 6.43173 140.431C6.48785 139.865 6.54828 139.174 6.61303 138.548C6.67778 137.922 6.73821 137.287 6.81159 136.661C6.88497 136.035 6.94972 135.409 7.02742 134.787C7.10512 134.165 7.17419 133.535 7.2562 132.913C7.32095 132.395 7.39001 131.881 7.45908 131.363C7.55836 130.633 7.66196 129.899 7.77419 129.174C7.77419 129.066 7.80441 128.953 7.82167 128.85C8.60953 123.539 9.68304 118.275 11.0375 113.08L49.7832 113.062Z" fill="#0077B6"/>
<path opacity="0.1" d="M5.97414 146.04H49.7832V205.773H9.18137C9.07345 206.387 8.96986 207.004 8.85762 207.622H49.7832V255.795C49.7098 255.774 49.645 255.748 49.576 255.722C48.4191 255.264 47.2709 254.78 46.1227 254.262L45.3889 253.93C44.2378 253.386 43.0867 252.81 41.9356 252.202C41.5342 251.991 41.1327 251.771 40.7356 251.546C34.3453 247.965 28.54 243.427 23.5211 238.091C23.3743 237.948 23.2362 237.797 23.0894 237.659C22.3901 236.899 21.7038 236.13 21.039 235.344L20.3052 234.481C19.5196 233.518 18.7599 232.529 18.0217 231.527C17.9138 231.38 17.8102 231.233 17.698 231.095C14.696 226.931 12.2034 222.423 10.2735 217.666C10.213 217.523 10.1612 217.368 10.1051 217.234C9.51231 215.708 8.98712 214.168 8.52956 212.613C8.331 211.961 8.14107 211.318 7.97704 210.64C7.91661 210.441 7.86481 210.247 7.81733 210.053C5.3655 200.479 5.07629 190.535 5.07629 180.659C5.07629 179.506 5.07629 178.349 5.07629 177.204C5.07629 173.21 5.12378 169.19 5.19284 165.174C5.19284 164.133 5.23601 163.097 5.25759 162.052C5.31802 159.401 5.40435 156.749 5.51659 154.098C5.54249 153.36 5.57702 152.625 5.61587 151.891C5.61587 151.468 5.63745 151.045 5.68062 150.622C5.78421 149.085 5.87055 147.56 5.97414 146.04Z" fill="#0077B6"/>
<path opacity="0.1" d="M93.1821 90.3705V144.192H60.2423V90.3705H64.9387V72.1479H84.2166V90.3705H93.1821Z" fill="#0077B6"/>
<path opacity="0.1" d="M93.1821 146.036H60.2466V205.769H93.1821V146.036Z" fill="#0077B6"/>
<path opacity="0.1" d="M60.2423 207.622H93.1821V257.281C89.2965 258.397 85.337 259.239 81.3331 259.798L80.3489 259.919C79.8655 259.975 79.3863 260.023 78.9115 260.07C78.4367 260.118 77.9446 260.152 77.4654 260.182H77.3144C77.1072 260.182 76.8827 260.208 76.6798 260.213H76.4597C76.2007 260.213 75.9417 260.238 75.6827 260.247C75.3158 260.269 74.9489 260.273 74.5733 260.277C74.4136 260.277 74.2625 260.277 74.1028 260.277C73.7316 260.277 73.3647 260.277 72.9935 260.277H72.1776C71.9575 260.277 71.746 260.277 71.5172 260.277L70.6841 260.247C70.2524 260.247 69.7862 260.2 69.3373 260.169L68.5085 260.109L67.4769 260.014C66.7517 259.949 66.0308 259.867 65.3186 259.768L64.4552 259.647L64.0236 259.586C63.3027 259.474 62.5905 259.353 61.8653 259.215C61.3344 259.124 60.8077 259.012 60.2725 258.904L60.2423 207.622Z" fill="#0077B6"/>
<path opacity="0.1" d="M299.088 84.0142H271.928V144.188H299.088V84.0142Z" fill="#0077B6"/>
<path opacity="0.1" d="M299.092 146.036V205.773H164.281V180.007H236.087V195.207H271.928V146.036H299.092Z" fill="#0077B6"/>
<path opacity="0.1" d="M299.519 271.669H299.088V310.856C294.224 310.444 289.375 309.884 284.541 309.176C262.775 305.988 241.557 299.795 221.493 290.772C215.7 288.164 210.025 285.317 204.468 282.231C195.186 277.087 186.293 271.269 177.861 264.824C175.743 263.201 173.652 261.54 171.589 259.841C170.16 258.662 168.74 257.453 167.302 256.279C166.305 255.471 165.299 254.677 164.281 253.917V207.622H271.569C271.496 207.345 271.423 207.069 271.345 206.797C271.427 207.069 271.505 207.345 271.578 207.622H299.088V271.643C299.234 271.647 299.377 271.66 299.519 271.669Z" fill="#0077B6"/>
<path opacity="0.1" d="M369.923 79.532H352.225V74.0306H360.159V57.6432C360.846 57.8936 361.531 58.1513 362.213 58.4161V74.0306H369.923V79.532Z" fill="#0077B6"/>
<path opacity="0.1" d="M412.562 144.192H325.678C325.678 144.192 325.678 144.192 325.708 144.214L325.669 144.192H309.551V84.0185H314.118V128.496H334.989V102.155H352.229V81.3801H369.927V102.172H387.168V128.513H412.562V144.192Z" fill="#0077B6"/>
<path opacity="0.1" d="M309.551 146.036V205.773H412.562V146.036H309.551ZM440.525 276.09L440.667 228.807H412.562V207.648H309.551V311.499C317.996 311.854 326.455 311.753 334.889 311.197H335.036C339.065 310.944 343.075 310.575 347.066 310.092H347.157C368.451 307.613 389.273 302.055 408.971 293.592" fill="#0077B6"/>
<path opacity="0.1" d="M452.952 207.622H476.983C476.771 219.751 474.337 231.665 469.01 242.668C464.577 251.809 458.417 259.802 451.139 266.785V228.785H452.952V207.622Z" fill="#0077B6"/>
<path opacity="0.1" d="M476.996 205.773H452.952V155.851H465.962C472.696 171.591 476.974 188.864 476.996 205.773Z" fill="#0077B6"/>
<path opacity="0.1" d="M299.092 100.743H284.541V119.609H299.092V100.743Z" fill="#0077B6"/>
<path opacity="0.1" d="M299.092 139.848H284.541V144.192H299.092V139.848Z" fill="#0077B6"/>
<path opacity="0.1" d="M299.092 146.036H284.541V158.71H299.092V146.036Z" fill="#0077B6"/>
<path opacity="0.1" d="M299.092 178.953H284.541V197.819H299.092V178.953Z" fill="#0077B6"/>
<path opacity="0.1" d="M299.092 218.059H284.541V236.925H299.092V218.059Z" fill="#0077B6"/>
<path opacity="0.1" d="M299.088 271.643C299.234 271.643 299.377 271.643 299.519 271.669H299.088V276.052H284.541V257.164H299.088V271.643Z" fill="#0077B6"/>
<path opacity="0.1" d="M299.088 296.261V310.834C294.224 310.423 289.375 309.863 284.541 309.155V296.261H299.088Z" fill="#0077B6"/>
<path opacity="0.1" d="M226.642 204.387H164.281V205.773H226.642V204.387Z" fill="#0077B6"/>
<path opacity="0.1" d="M226.642 207.617H164.281V212.929H226.642V207.617Z" fill="#0077B6"/>
<path opacity="0.1" d="M226.642 230.339H164.281V238.881H226.642V230.339Z" fill="#0077B6"/>
<path opacity="0.1" d="M226.638 256.292V264.833H177.861C175.743 263.215 173.65 261.554 171.584 259.85C170.155 258.671 168.74 257.462 167.298 256.292H226.638Z" fill="#0077B6"/>
<path opacity="0.1" d="M226.638 282.24V290.772H221.488C215.701 288.161 210.028 285.313 204.468 282.227L226.638 282.24Z" fill="#0077B6"/>
<path opacity="0.1" d="M347.17 151.827H334.894V164.108H347.17V151.827Z" fill="#0077B6"/>
<path opacity="0.1" d="M81.3633 94.6066H69.087V106.887H81.3633V94.6066Z" fill="#0077B6"/>
<path opacity="0.1" d="M81.3633 123.132H69.087V135.413H81.3633V123.132Z" fill="#0077B6"/>
<path opacity="0.1" d="M81.3633 151.658H69.087V163.939H81.3633V151.658Z" fill="#0077B6"/>
<path opacity="0.1" d="M81.3633 180.18H69.087V192.461H81.3633V180.18Z" fill="#0077B6"/>
<path opacity="0.1" d="M81.3633 208.706H69.087V220.986H81.3633V208.706Z" fill="#0077B6"/>
<path opacity="0.1" d="M81.3633 237.231H69.087V249.512H81.3633V237.231Z" fill="#0077B6"/>
<path opacity="0.1" d="M394.035 151.827H381.759V164.108H394.035V151.827Z" fill="#0077B6"/>
<path opacity="0.1" d="M347.17 182.119H334.894V194.399H347.17V182.119Z" fill="#0077B6"/>
<path opacity="0.1" d="M394.035 182.119H381.759V194.399H394.035V182.119Z" fill="#0077B6"/>
<path opacity="0.1" d="M347.17 212.406H334.894V224.687H347.17V212.406Z" fill="#0077B6"/>
<path opacity="0.1" d="M394.035 212.406H381.759V224.687H394.035V212.406Z" fill="#0077B6"/>
<path opacity="0.1" d="M347.17 242.698H334.894V254.979H347.17V242.698Z" fill="#0077B6"/>
<path opacity="0.1" d="M394.035 242.698H381.759V254.979H394.035V242.698Z" fill="#0077B6"/>
<path opacity="0.1" d="M347.17 272.99H334.894V285.271H347.17V272.99Z" fill="#0077B6"/>
<path opacity="0.1" d="M394.035 272.99H381.759V285.271H394.035V272.99Z" fill="#0077B6"/>
<path opacity="0.1" d="M334.894 311.197V303.278H347.166V310.07L334.894 311.197Z" fill="#0077B6"/>
<path opacity="0.1" d="M7.76985 128.841V135.867H49.7832V128.841H7.76985ZM11.9569 135.426H8.52957V129.273H11.9828L11.9569 135.426ZM16.1397 135.426H12.6864V129.273H16.1397V135.426ZM20.3139 135.426H16.8606V129.273H20.3139V135.426ZM24.4966 135.426H21.0477V129.273H24.5009L24.4966 135.426ZM28.6751 135.426H25.2218V129.273H28.6751V135.426ZM32.8578 135.426H29.4046V129.273H32.8578V135.426ZM37.0406 135.426H33.5874V129.273H37.0406V135.426ZM41.2191 135.426H37.7658V129.273H41.2191V135.426ZM45.3975 135.426H41.9443V129.273H45.3975V135.426ZM49.576 135.426H46.1227V129.273H49.576V135.426Z" fill="#0077B6"/>
<path opacity="0.1" d="M7.76985 149.283V156.309H49.7832V149.283H7.76985ZM11.9569 155.864H8.52957V149.728H11.9828L11.9569 155.864ZM16.1397 155.864H12.6864V149.728H16.1397V155.864ZM20.3139 155.864H16.8606V149.728H20.3139V155.864ZM24.4966 155.864H21.0477V149.728H24.5009L24.4966 155.864ZM28.6751 155.864H25.2218V149.728H28.6751V155.864ZM32.8578 155.864H29.4046V149.728H32.8578V155.864ZM37.0406 155.864H33.5874V149.728H37.0406V155.864ZM41.2191 155.864H37.7658V149.728H41.2191V155.864ZM45.3975 155.864H41.9443V149.728H45.3975V155.864ZM49.576 155.864H46.1227V149.728H49.576V155.864Z" fill="#0077B6"/>
<path opacity="0.1" d="M7.76985 169.734V176.773H49.7832V169.734H7.76985ZM11.9569 176.315H8.52957V170.175H11.9828L11.9569 176.315ZM16.1397 176.315H12.6864V170.175H16.1397V176.315ZM20.3139 176.315H16.8606V170.175H20.3139V176.315ZM24.4966 176.315H21.0477V170.175H24.5009L24.4966 176.315ZM28.6751 176.315H25.2218V170.175H28.6751V176.315ZM32.8578 176.315H29.4046V170.175H32.8578V176.315ZM37.0406 176.315H33.5874V170.175H37.0406V176.315ZM41.2191 176.315H37.7658V170.175H41.2191V176.315ZM45.3975 176.315H41.9443V170.175H45.3975V176.315ZM49.576 176.315H46.1227V170.175H49.576V176.315Z" fill="#0077B6"/>
<path opacity="0.1" d="M7.76985 190.185V197.202H49.7832V190.185H7.76985ZM11.9569 196.766H8.52957V190.621H11.9828L11.9569 196.766ZM16.1397 196.766H12.6864V190.621H16.1397V196.766ZM20.3139 196.766H16.8606V190.621H20.3139V196.766ZM24.4966 196.766H21.0477V190.621H24.5009L24.4966 196.766ZM28.6751 196.766H25.2218V190.621H28.6751V196.766ZM32.8578 196.766H29.4046V190.621H32.8578V196.766ZM37.0406 196.766H33.5874V190.621H37.0406V196.766ZM41.2191 196.766H37.7658V190.621H41.2191V196.766ZM45.3975 196.766H41.9443V190.621H45.3975V196.766ZM49.576 196.766H46.1227V190.621H49.576V196.766Z" fill="#0077B6"/>
<path opacity="0.1" d="M7.95117 210.631C8.11952 211.292 8.30945 211.953 8.50801 212.605V211.072H11.9613V217.212H10.1138C10.1699 217.355 10.226 217.51 10.2821 217.644H49.7832V210.631H7.95117ZM16.1527 217.212H12.6994V211.072H16.1527V217.212ZM20.3268 217.212H16.8736V211.072H20.3268V217.212ZM24.5096 217.212H21.0477V211.072H24.501L24.5096 217.212ZM28.688 217.212H25.2348V211.072H28.688V217.212ZM32.8708 217.212H29.4175V211.072H32.8708V217.212ZM37.0536 217.212H33.6003V211.072H37.0536V217.212ZM41.232 217.212H37.7788V211.072H41.232V217.212ZM45.4105 217.212H41.9572V211.072H45.4105V217.212ZM49.589 217.212H46.1357V211.072H49.589V217.212Z" fill="#0077B6"/>
<path opacity="0.1" d="M17.7066 231.082C17.8145 231.22 17.9181 231.376 18.0304 231.514H20.3138V234.463C20.5599 234.757 20.8016 235.051 21.052 235.327V231.497H24.5052V237.659H23.1067C23.2448 237.801 23.3786 237.952 23.5383 238.091H49.7961V231.082H17.7066ZM28.6751 237.659H25.2218V231.523H28.6751V237.659ZM32.8578 237.659H29.4046V231.523H32.8578V237.659ZM37.0406 237.659H33.5873V231.523H37.0406V237.659ZM41.2191 237.659H37.7658V231.523H41.2191V237.659ZM45.3975 237.659H41.9442V231.523H45.3975V237.659ZM49.576 237.659H46.1227V231.523H49.576V237.659Z" fill="#0077B6"/>
<path opacity="0.1" d="M40.7529 251.529C41.1457 251.753 41.5471 251.961 41.9529 252.185V251.969H45.4062V253.912L46.14 254.254V251.969H49.5933V255.704C49.6595 255.737 49.7289 255.763 49.8004 255.782V251.529H40.7529Z" fill="#0077B6"/>
<path opacity="0.1" d="M325.678 144.192H325.704H325.678ZM299.088 271.638H299.519H299.088ZM271.345 206.793C271.427 207.069 271.496 207.345 271.574 207.617C271.505 207.345 271.431 207.069 271.345 206.793ZM325.678 144.179H325.704H325.678ZM64.956 79.519V81.3628H84.2382V79.519H64.956ZM299.088 271.638H299.519H299.088ZM271.345 206.793C271.427 207.069 271.496 207.345 271.574 207.617C271.505 207.345 271.431 207.069 271.345 206.793ZM325.678 144.179H325.704H325.678ZM299.088 271.625H299.519H299.088ZM271.345 206.793C271.427 207.069 271.496 207.345 271.574 207.617C271.505 207.345 271.431 207.069 271.345 206.793Z" fill="#0077B6"/>
<path d="M199.254 163.948C199.254 163.948 197.553 163.71 197.553 161.232C197.553 158.753 196.336 154.124 196.336 154.124C196.336 154.102 195.282 146.062 193.828 144.784C192.373 143.506 190.504 136.001 190.504 136.001C190.504 136.001 190.184 131.929 189.533 131.052C188.881 130.175 188 128.029 186.701 124.968C185.402 121.906 179.984 119.786 179.984 119.786C179.984 119.786 170.19 114.103 167.414 112.251C167.162 112.098 166.926 111.92 166.711 111.72C166.227 111.085 164.121 111.072 164.121 111.072C163.901 109.681 163.689 108.084 163.62 106.637C163.62 106.482 163.62 106.326 163.599 106.171C166.694 104.341 169.025 101.455 170.164 98.0439C170.216 97.8798 170.259 97.7071 170.307 97.543C170.492 97.4819 170.663 97.3828 170.808 97.2519C170.953 97.121 171.069 96.9613 171.148 96.783C171.399 96.226 171.403 95.5739 171.714 95.0558C172.076 94.4426 172.767 94.1144 173.311 93.6524C174.684 92.4865 175.038 90.5217 174.973 88.734C174.93 87.2874 174.697 85.8278 174.787 84.3899L174.813 84.0272C174.839 83.8113 174.869 83.5954 174.908 83.3881C175.12 82.3172 175.581 81.3067 175.84 80.2445C176.099 79.1822 176.125 77.9861 175.521 77.0706C174.636 75.7277 172.793 75.4599 171.174 75.3217C169.34 75.1663 167.699 75.3692 166.525 73.8449C165.976 73.0482 165.358 72.3012 164.678 71.6124C164.436 71.3879 162.088 69.9543 162.088 69.8593C159.796 68.7974 157.198 68.5981 154.771 69.2979C153.554 69.652 152.406 70.2306 151.171 70.52C148.508 71.1504 145.443 70.4681 143.181 71.9924C141.921 72.8561 141.165 74.2293 140.457 75.5679C139.882 76.6705 139.298 77.7716 138.705 78.8713C137.751 80.6806 136.78 82.5201 136.378 84.5238C136.294 84.9598 136.242 85.4014 136.223 85.8451V85.8667C136.223 86.0265 136.223 86.1863 136.223 86.346V86.549C136.223 86.7001 136.223 86.8469 136.249 86.9808C136.275 87.1147 136.27 87.1578 136.283 87.2485C136.296 87.3392 136.318 87.5422 136.344 87.6803C136.37 87.8185 136.421 88.0603 136.473 88.2503C136.495 88.3324 136.525 88.4101 136.551 88.4878C136.594 88.6346 136.646 88.7771 136.702 88.9196C136.732 88.9931 136.762 89.0708 136.797 89.1442C136.862 89.2953 136.939 89.4422 137.017 89.576C137.052 89.6365 137.077 89.6926 137.112 89.7487C137.232 89.9496 137.365 90.1428 137.509 90.3274C138.433 91.4803 139.793 92.2144 140.798 93.2939C140.798 93.3371 140.798 93.3803 140.798 93.4192C140.798 93.5401 140.798 93.6567 140.798 93.7776C140.852 96.1852 141.492 98.5433 142.664 100.647C143.837 102.75 145.505 104.535 147.524 105.847C147.524 106.011 147.545 106.179 147.554 106.343C147.638 107.625 147.622 108.912 147.506 110.191C147.331 109.984 147.111 109.819 146.862 109.708C146.614 109.598 146.345 109.544 146.073 109.552C145.888 109.543 145.702 109.559 145.521 109.599L145.482 109.569V109.608C144.532 109.841 143.362 110.83 142.244 113.641C142.244 113.641 138.843 117.476 136.253 117.316C133.663 117.156 127.106 121.306 127.106 121.306C127.106 121.306 120.709 125.46 119.336 129.692C118.569 132.091 117.649 134.44 116.582 136.722L108.674 153.023L107.215 165.956C107.215 165.956 108.023 171.707 107.863 172.584C107.703 173.461 111.182 181.367 111.182 181.367C111.182 181.367 122.677 201.572 127.374 202.608L127.71 202.371C127.911 202.476 128.125 202.556 128.345 202.608L129.312 201.926C129.37 202.686 129.345 203.451 129.239 204.206C128.591 206.201 129.48 219.22 130.611 221.772C131.742 224.324 131.341 257.786 131.341 257.786L131.181 260.739C131.181 260.739 131.181 260.834 131.22 260.999L131.181 261.698L131.298 261.758C131.419 262.695 131.379 263.646 131.181 264.57C130.775 265.865 130.611 269.527 130.611 269.527C130.611 269.527 127.378 290.202 128.91 294.356C130.443 298.51 131.746 303.062 131.746 303.062C131.746 303.062 133.365 308.244 131.824 309.129C130.283 310.014 125.902 311.499 126.804 313.659C127.624 315.654 130.736 320.999 131.198 321.781L131.159 322.191L130.525 329.07C130.628 329.978 130.874 330.865 131.254 331.696C131.949 333.194 133.3 334.748 135.869 334.58C136.3 334.55 136.801 334.498 137.285 334.433C141.985 333.803 147.774 331.704 147.774 331.704C147.473 331.513 147.198 331.285 146.954 331.026C146.723 330.802 146.54 330.534 146.416 330.237C146.292 329.94 146.23 329.621 146.233 329.299C146.302 328.047 143.958 322.079 143.375 320.611C143.285 320.399 143.237 320.278 143.237 320.278C143.237 320.278 148.581 314.691 147.692 309.738C147.692 309.738 141.778 306.283 143.725 304.387C145.672 302.492 149.151 297.047 149.151 297.047C149.151 297.047 149.311 276.686 149.151 273.646C148.984 271.536 149.084 269.414 149.449 267.329C149.514 267.014 149.591 266.707 149.673 266.405C152.366 266.807 155.084 267.013 157.806 267.022C158.799 267.022 159.809 267.022 160.827 266.962C160.827 267.25 160.84 267.561 160.866 267.895C161.091 272.938 161.509 281.782 161.85 285.068C162.334 289.779 165.006 302.474 165.006 302.474C165.006 302.474 159.908 305.748 165.895 313.814C165.895 313.814 165.895 316.737 165.498 317.161C165.074 318.544 164.732 319.951 164.475 321.375C164.224 322.895 164.121 324.432 164.527 325.231C165.498 327.14 171.325 326.984 171.325 326.984L171.468 326.958C172.568 326.845 173.68 326.951 174.739 327.27C175.797 327.59 176.782 328.116 177.636 328.82C179.851 330.599 188.255 329.817 192.805 329.251C194.587 329.027 195.779 328.82 195.779 328.82C195.836 328.618 195.857 328.407 195.839 328.198C195.792 327.079 194.915 324.627 188.976 322.437C188.976 322.437 183.39 318.681 183.468 315.407H183.351H182.704C183.174 315.381 183.476 315.407 183.476 315.407C183.476 315.407 181.288 307.419 182.181 306.771C183.075 306.123 180.399 297.271 180.399 297.271C180.399 297.271 178.866 282.417 178.784 281.376C178.788 280.483 178.923 279.595 179.186 278.742L178.784 270.598C178.784 270.598 178.707 267.89 178.784 267.009C178.771 266.245 178.709 265.482 178.599 264.725C178.56 264.423 178.521 264.108 178.478 263.797C180.571 263.266 181.931 262.773 181.931 262.773L181.689 234.425C183.468 230.97 183.796 223.392 183.787 218.016C183.787 214.561 183.632 212.005 183.632 212.005L186.062 208.036C186.062 208.036 186.623 203.286 185.734 202.246C185.341 201.775 185.518 201.287 185.842 200.885C186.01 200.752 186.188 200.631 186.373 200.523C186.373 200.523 186.347 200.484 186.317 200.428C186.486 200.286 186.667 200.157 186.856 200.043C186.856 200.043 185.993 198.705 186.766 198.139C187.491 198.631 188.138 199.003 188.63 199.305C188.596 199.62 188.561 199.801 188.561 199.801L188.769 199.37C189.243 199.637 189.533 199.801 189.533 199.801C189.533 199.801 193.34 192.214 193.258 191.096C193.176 189.978 195.848 185.267 195.848 185.267C195.848 185.267 196.172 182.792 197.631 181.756C199.09 180.72 198.761 173.21 198.761 173.21C198.761 173.21 199.167 169.298 200.138 167.7C201.11 166.103 199.254 163.948 199.254 163.948ZM126.407 160.618L126.48 162.428C126.049 161.733 125.738 161.232 125.738 161.232L126.407 160.618Z" fill="url(#paint0_linear_11_23)"/>
<path d="M189.74 196.524L188.807 200.497C188.807 200.497 181.34 196.684 179.993 191.839C178.646 186.994 182.246 185.154 182.246 185.154L189.205 188.104L189.74 196.524Z" fill="white"/>
<path opacity="0.1" d="M189.74 196.524L188.807 200.497C188.807 200.497 181.34 196.684 179.993 191.839C178.646 186.994 182.246 185.154 182.246 185.154L189.205 188.104L189.74 196.524Z" fill="black"/>
<path d="M147.83 331.73C147.83 331.73 140.924 334.269 136.175 334.589C133.654 334.757 132.329 333.211 131.647 331.721C131.275 330.893 131.034 330.012 130.935 329.109L131.552 322.265L131.88 318.62L141.968 315.999L143.397 320.369L143.531 320.701C144.105 322.161 146.406 328.098 146.337 329.338C146.334 329.655 146.395 329.97 146.517 330.263C146.638 330.556 146.818 330.821 147.045 331.043C147.276 331.305 147.54 331.536 147.83 331.73Z" fill="white"/>
<path d="M195.006 328.25C195.023 328.457 195.003 328.667 194.946 328.867C194.946 328.867 180.174 331.333 177.153 328.867C176.301 328.147 175.308 327.613 174.237 327.299C173.167 326.985 172.043 326.898 170.937 327.045C170.937 327.045 165.222 327.2 164.268 325.318C163.871 324.527 163.974 322.994 164.22 321.483C164.471 320.067 164.806 318.667 165.222 317.29L165.45 317.109L166.81 316.016L182.73 315.546H182.851C182.773 318.801 188.255 322.537 188.255 322.537C194.078 324.696 194.937 327.135 195.006 328.25Z" fill="white"/>
<path opacity="0.1" d="M195.006 328.25C195.021 328.458 194.999 328.667 194.941 328.867C194.941 328.867 180.174 331.333 177.153 328.867C176.301 328.147 175.309 327.613 174.239 327.3C173.17 326.986 172.046 326.899 170.941 327.045C170.941 327.045 165.222 327.2 164.272 325.318C163.875 324.523 163.974 322.994 164.22 321.483C166.422 321.703 169.897 322.252 171.261 323.56C173.324 325.551 176.82 327.537 178.966 327.693C180.645 327.8 190.689 328.12 195.006 328.25Z" fill="black"/>
<path opacity="0.1" d="M147.83 331.73C147.83 331.73 140.924 334.269 136.175 334.589C133.654 334.757 132.329 333.211 131.652 331.717C133.408 332.309 135.847 332.931 137.129 332.361C138.649 331.687 144.036 331.251 147.057 331.065C147.287 331.317 147.547 331.54 147.83 331.73Z" fill="black"/>
<path d="M158.078 127.114C152.38 124.899 145.05 117.579 146.88 114.159C147.287 113.296 147.528 112.365 147.593 111.413C147.71 110.121 147.728 108.821 147.644 107.527C147.516 105.406 147.261 103.295 146.88 101.205C146.88 101.205 164.669 101.606 163.633 104.228C163.331 104.996 163.283 106.33 163.365 107.825C163.448 109.319 163.663 111.007 163.888 112.436C164.199 114.397 164.509 115.891 164.509 115.891C164.509 115.891 163.422 117.415 162.783 117.497C162.144 117.579 166.253 130.27 158.078 127.114Z" fill="#CF6F80"/>
<path opacity="0.1" d="M143.518 320.701L143.384 320.848C138.066 314.414 131.634 322.433 131.634 322.433L131.539 322.265L131.867 318.62L141.955 315.999L143.384 320.369L143.518 320.701Z" fill="black"/>
<path opacity="0.1" d="M182.855 315.999C182.855 315.999 178.97 315.917 176.898 317.748C174.826 319.579 164.812 318.145 165.243 317.748C165.371 317.551 165.448 317.325 165.468 317.091L166.827 315.999L182.747 315.528C182.807 315.818 182.855 315.999 182.855 315.999Z" fill="black"/>
<path d="M150.135 265.472C149.846 266.188 149.626 266.93 149.479 267.687C149.119 269.763 149.019 271.875 149.181 273.975C149.341 276.997 149.181 297.254 149.181 297.254C149.181 297.254 145.767 302.656 143.863 304.56C141.96 306.464 147.748 309.884 147.748 309.884C148.611 314.807 143.38 320.369 143.38 320.369C138.062 313.935 131.63 321.958 131.63 321.958C131.63 321.958 128.134 315.913 127.262 313.753C126.39 311.594 130.676 310.1 132.183 309.224C133.689 308.347 132.109 303.178 132.109 303.178C132.109 303.178 130.836 298.649 129.325 294.516C127.814 290.384 130.991 269.812 130.991 269.812C130.991 269.812 131.155 266.159 131.548 264.885C131.746 263.966 131.786 263.019 131.665 262.087C131.639 261.771 131.608 261.508 131.587 261.331C131.565 261.154 131.548 261.072 131.548 261.072L131.608 260.968L133.767 256.944C133.767 256.944 151.171 262.937 150.135 265.472Z" fill="#0077B6"/>
<path d="M182.855 315.524C182.855 315.524 178.97 315.442 176.898 317.251C174.826 319.061 164.812 317.648 165.243 317.251C165.675 316.854 165.64 313.913 165.64 313.913C159.765 305.89 164.777 302.634 164.777 302.634C164.777 302.634 162.153 290.004 161.678 285.318C161.345 282.045 160.935 273.249 160.715 268.227C160.62 266.068 160.564 264.583 160.564 264.583L165.364 263.615L165.981 263.49L177.558 261.167C177.558 261.167 177.878 263.326 178.094 265.092C178.201 265.846 178.262 266.606 178.275 267.368C178.197 268.231 178.275 270.935 178.275 270.935L178.668 279.04C178.411 279.89 178.279 280.773 178.275 281.661C178.353 282.693 179.859 297.47 179.859 297.47C179.859 297.47 182.479 306.287 181.586 306.922C180.692 307.557 182.855 315.524 182.855 315.524Z" fill="#0077B6"/>
<path opacity="0.1" d="M163.633 104.228C163.331 104.996 163.284 106.33 163.366 107.825C160.983 109.26 158.244 109.994 155.463 109.942C152.682 109.89 149.972 109.054 147.645 107.531C147.516 105.409 147.261 103.296 146.88 101.205C146.88 101.205 164.669 101.598 163.633 104.228Z" fill="black"/>
<path d="M170.509 94.6844C170.513 96.2404 170.268 97.7871 169.784 99.266C168.703 102.58 166.485 105.404 163.523 107.24C160.561 109.076 157.046 109.806 153.599 109.3C150.151 108.794 146.993 107.085 144.683 104.476C142.373 101.866 141.06 98.5232 140.975 95.0385C140.975 94.9176 140.975 94.8053 140.975 94.6844C140.942 92.7229 141.299 90.7744 142.026 88.9525C142.753 87.1306 143.836 85.4717 145.211 84.0727C146.586 82.6737 148.225 81.5626 150.034 80.8041C151.842 80.0457 153.784 79.655 155.745 79.655C157.706 79.655 159.647 80.0457 161.456 80.8041C163.264 81.5626 164.904 82.6737 166.278 84.0727C167.653 85.4717 168.736 87.1306 169.463 88.9525C170.19 90.7744 170.547 92.7229 170.514 94.6844H170.509Z" fill="#CF6F80"/>
<path opacity="0.1" d="M158.078 127.114C152.38 124.899 145.05 117.579 146.88 114.159C147.287 113.296 147.528 112.365 147.593 111.413L155.393 117.825L160.219 121.785L163.888 112.441C164.199 114.401 164.509 115.895 164.509 115.895C164.509 115.895 163.422 117.42 162.783 117.502C162.144 117.584 166.253 130.27 158.078 127.114Z" fill="black"/>
<path d="M178.249 155.454L171.735 264.919L163.24 265.476L141.243 202.004L144.852 126.647L145.611 110.726L155.393 118.762L160.223 122.722L164 113.106L171.023 119.229L178.249 155.454Z" fill="#0077B6"/>
<path opacity="0.1" d="M150.135 265.472C149.846 266.188 149.626 266.93 149.479 267.687C143.298 266.733 137.294 264.856 131.669 262.121L131.552 262.061L131.591 261.366L131.613 261.003L133.771 256.978C133.771 256.978 151.171 262.937 150.135 265.472Z" fill="black"/>
<path opacity="0.1" d="M165.463 267.705C163.883 267.973 162.289 268.155 160.689 268.249C160.594 266.09 160.538 264.604 160.538 264.604L165.338 263.637L165.463 267.705Z" fill="black"/>
<path opacity="0.1" d="M178.068 265.114C174.999 265.913 170.259 266.811 166.016 266.249L165.955 263.512L177.533 261.188C177.533 261.188 177.852 263.326 178.068 265.114Z" fill="black"/>
<path opacity="0.1" d="M165.938 266.75C148.24 269.773 132.031 261.106 132.031 261.106L132.187 258.17C132.187 258.17 132.588 224.881 131.475 222.329C130.361 219.777 129.493 206.836 130.123 204.849C130.754 202.863 127.823 173.076 127.823 173.076L127.348 160.986L109.969 153.943L117.739 137.741C118.789 135.469 119.691 133.133 120.441 130.745C121.792 126.54 128.064 122.407 128.064 122.407C128.064 122.407 134.496 118.279 137.039 118.434C139.581 118.59 142.914 114.781 142.914 114.781C145.374 108.507 147.601 111.348 147.601 111.348C147.601 111.646 147.601 111.348 147.48 112.277C146.617 119.164 161.44 140.928 161.652 141.312L163.063 175.71L164.492 219.242L165.938 266.75Z" fill="black"/>
<path d="M165.463 266.75C147.765 269.773 131.552 261.106 131.552 261.106L131.712 258.17C131.712 258.17 132.113 224.881 130.995 222.329C129.877 219.777 129.014 206.836 129.649 204.849C130.283 202.863 127.348 173.076 127.348 173.076L126.869 160.985L109.482 153.917L117.251 137.715C118.299 135.442 119.201 133.106 119.954 130.719C121.3 126.514 127.577 122.381 127.577 122.381C127.577 122.381 134.008 118.253 136.547 118.408C139.085 118.564 142.421 114.755 142.421 114.755C144.886 108.481 147.601 111.322 147.601 111.322C147.601 111.62 147.342 111.754 147.48 112.251C149.38 118.931 160.965 140.902 161.177 141.286L162.606 175.685L164.035 219.216L165.463 266.75Z" fill="white"/>
<path opacity="0.1" d="M160.694 142.266C158.79 141.472 148.706 129.955 148.706 129.955V127.334C148.339 126.47 146.16 126.997 144.39 127.602L145.15 111.681L146.013 112.397C147.904 119.073 160.473 141.882 160.694 142.266Z" fill="black"/>
<path d="M161.173 141.312C159.265 140.517 149.181 129.001 149.181 129.001V126.38C148.814 125.516 146.634 126.043 144.865 126.647L145.629 110.726L146.492 111.443C148.387 118.119 160.961 140.932 161.173 141.312Z" fill="white"/>
<path opacity="0.1" d="M132.031 198.748C132.269 198.748 144.338 197.478 144.338 197.478C144.338 197.478 151.646 211.853 151.167 215.351C150.688 218.849 149.82 221.945 146.88 221.397C143.941 220.848 131.06 221.828 131.06 221.828L132.031 198.748Z" fill="black"/>
<path d="M131.552 197.794C131.79 197.794 143.859 196.524 143.859 196.524C143.859 196.524 151.163 210.903 150.688 214.397C150.213 217.89 149.337 220.991 146.401 220.442C143.466 219.894 130.581 220.874 130.581 220.874L131.552 197.794Z" fill="white"/>
<path d="M140.647 191.044C140.647 191.044 151.724 196.999 151.961 198.817C152.198 200.635 146.324 198.022 145.055 197.707C144.219 197.506 143.369 197.373 142.512 197.31L134.047 197.539L140.647 191.044Z" fill="#CF6F80"/>
<path opacity="0.1" d="M157.603 143.009C158.247 143.009 158.768 142.487 158.768 141.843C158.768 141.199 158.247 140.677 157.603 140.677C156.959 140.677 156.437 141.199 156.437 141.843C156.437 142.487 156.959 143.009 157.603 143.009Z" fill="black"/>
<path d="M157.603 142.534C158.247 142.534 158.768 142.012 158.768 141.368C158.768 140.724 158.247 140.202 157.603 140.202C156.959 140.202 156.437 140.724 156.437 141.368C156.437 142.012 156.959 142.534 157.603 142.534Z" fill="#3F3D56"/>
<path opacity="0.1" d="M159.748 193.48C160.392 193.48 160.914 192.958 160.914 192.314C160.914 191.67 160.392 191.148 159.748 191.148C159.105 191.148 158.583 191.67 158.583 192.314C158.583 192.958 159.105 193.48 159.748 193.48Z" fill="black"/>
<path d="M159.748 193C160.392 193 160.914 192.478 160.914 191.834C160.914 191.191 160.392 190.669 159.748 190.669C159.105 190.669 158.583 191.191 158.583 191.834C158.583 192.478 159.105 193 159.748 193Z" fill="#3F3D56"/>
<path opacity="0.1" d="M158.764 168.244C159.408 168.244 159.93 167.722 159.93 167.078C159.93 166.435 159.408 165.913 158.764 165.913C158.12 165.913 157.599 166.435 157.599 167.078C157.599 167.722 158.12 168.244 158.764 168.244Z" fill="black"/>
<path d="M158.764 167.769C159.408 167.769 159.93 167.247 159.93 166.603C159.93 165.959 159.408 165.438 158.764 165.438C158.12 165.438 157.599 165.959 157.599 166.603C157.599 167.247 158.12 167.769 158.764 167.769Z" fill="#3F3D56"/>
<path d="M185.63 197.068C185.63 197.068 186.425 198.26 185.63 198.817C184.836 199.374 185.708 200.721 185.708 200.721C185.708 200.721 183.727 201.883 184.599 202.928C185.471 203.973 184.918 208.693 184.918 208.693L182.535 212.639C182.535 212.639 182.678 215.183 182.687 218.62C182.687 223.983 182.371 231.523 180.628 234.96L180.869 263.162C180.869 263.162 172.525 266.211 165.541 265.282L164.505 220.028C164.505 220.028 166.016 194.365 166.573 189.442C166.899 186.887 167.031 184.31 166.97 181.734C166.97 181.734 166.732 174.031 165.934 170.455C165.934 170.455 165.071 154.966 164.984 150.678C164.945 148.627 165.053 142.642 165.174 136.951C165.308 130.728 165.459 124.86 165.459 124.86L163.883 112.389C163.883 112.389 165.459 112.229 165.934 112.864C166.147 113.063 166.378 113.241 166.625 113.395C169.344 115.235 178.953 120.891 178.953 120.891C178.953 120.891 184.271 123.007 185.544 126.039C186.817 129.07 187.702 131.22 188.32 132.084C188.937 132.948 189.274 137.007 189.274 137.007C189.274 137.007 191.104 144.477 192.533 145.742C193.961 147.008 195.006 155.057 195.006 155.057L182.38 164.988C182.38 164.988 181.271 181.51 181.033 182.149C180.796 182.788 185.63 197.068 185.63 197.068Z" fill="white"/>
<path d="M186.11 197.068C186.11 197.068 186.9 198.26 186.11 198.817C185.32 199.374 186.183 200.721 186.183 200.721C186.183 200.721 184.215 201.896 185.078 202.941C185.941 203.986 185.397 208.706 185.397 208.706L183.015 212.652C183.015 212.652 183.157 215.196 183.17 218.633C183.17 223.996 182.855 231.536 181.111 234.973L181.348 263.175C181.348 263.175 172.991 266.223 166.016 265.295L164.984 220.041C164.984 220.041 166.495 194.378 167.052 189.455C167.378 186.9 167.509 184.323 167.445 181.747C167.445 181.747 167.207 174.044 166.413 170.468C166.413 170.468 165.55 154.979 165.459 150.691C165.42 148.64 165.532 142.655 165.649 136.964C165.783 130.741 165.934 124.873 165.934 124.873L163.853 112.233C163.853 112.233 165.934 112.233 166.413 112.877C166.624 113.078 166.855 113.256 167.104 113.408C169.823 115.247 179.436 120.904 179.436 120.904C179.436 120.904 184.75 123.02 186.023 126.052C187.297 129.083 188.182 131.233 188.803 132.097C189.425 132.961 189.753 137.02 189.753 137.02C189.753 137.02 191.583 144.49 193.012 145.755C194.441 147.021 195.472 155.052 195.472 155.052L182.846 164.984C182.846 164.984 181.737 181.505 181.495 182.144C181.253 182.784 186.11 197.068 186.11 197.068Z" fill="white"/>
<path opacity="0.1" d="M170.989 128.539L172.128 131.864L166.128 137.909C166.262 131.691 166.413 125.818 166.413 125.818L164.332 113.179C164.332 113.179 166.413 113.179 166.892 113.822C167.102 114.023 167.334 114.2 167.583 114.349L172.685 129.074L170.989 128.539Z" fill="black"/>
<path d="M170.509 127.584L171.653 130.909L165.653 136.955C165.787 130.732 165.938 124.864 165.938 124.864L163.853 112.225C163.853 112.225 165.938 112.225 166.413 112.868C166.625 113.068 166.856 113.246 167.104 113.399L172.21 128.12L170.509 127.584Z" fill="white"/>
<path opacity="0.1" d="M170.509 94.6844C170.513 96.2404 170.268 97.7871 169.784 99.266C169.703 99.2787 169.619 99.2749 169.539 99.2549C169.459 99.2349 169.384 99.199 169.318 99.1494C169.206 95.263 167.294 91.6142 164.941 88.5094C164.281 87.572 163.48 86.7418 162.567 86.0481C161.644 85.3546 160.496 85.0298 159.347 85.1369C158.052 85.314 156.908 86.1949 155.6 86.3071C153.873 86.4496 152.328 85.2535 150.614 85.1931C149.918 85.1997 149.23 85.3549 148.598 85.6482C147.966 85.9416 147.404 86.3665 146.95 86.8944C146.049 87.9598 145.38 89.201 144.985 90.5389C144.307 92.5678 143.937 94.6873 143.889 96.8262C143.867 98.0353 143.751 99.551 142.629 99.9914C142.713 99.1022 142.612 98.2051 142.332 97.357C142.052 96.5089 141.599 95.7282 141.001 95.0644L140.975 95.0385C140.975 94.9176 140.975 94.8053 140.975 94.6844C140.942 92.7229 141.299 90.7744 142.026 88.9525C142.753 87.1306 143.836 85.4717 145.211 84.0727C146.586 82.6737 148.225 81.5626 150.034 80.8041C151.842 80.0457 153.784 79.655 155.745 79.655C157.706 79.655 159.647 80.0457 161.456 80.8041C163.264 81.5626 164.904 82.6737 166.278 84.0727C167.653 85.4717 168.736 87.1306 169.463 88.9525C170.19 90.7744 170.547 92.7229 170.514 94.6844H170.509Z" fill="black"/>
<path d="M161.859 71.2238C159.616 70.1683 157.065 69.9687 154.685 70.6625C153.489 71.0165 152.363 71.5909 151.15 71.8802C148.56 72.5063 145.538 71.8284 143.315 73.344C142.08 74.2077 141.338 75.5722 140.647 76.8979L138.921 80.1883C137.98 81.989 137.03 83.8199 136.637 85.8019C136.244 87.784 136.482 90.0035 137.738 91.5969C138.653 92.7585 140.004 93.4883 140.997 94.5808C141.592 95.2453 142.043 96.0255 142.322 96.8726C142.601 97.7197 142.703 98.6154 142.62 99.5035C143.747 99.0717 143.855 97.5517 143.88 96.3426C143.929 94.2037 144.298 92.0842 144.977 90.0553C145.371 88.717 146.04 87.4756 146.941 86.4108C147.396 85.8833 147.958 85.4587 148.59 85.1654C149.222 84.872 149.909 84.7166 150.606 84.7094C152.332 84.7699 153.882 85.9617 155.591 85.8192C156.886 85.7113 158.035 84.826 159.338 84.6533C160.488 84.5445 161.636 84.8695 162.558 85.5644C163.471 86.2572 164.27 87.0875 164.928 88.0258C167.285 91.1306 169.197 94.7708 169.309 98.6657C169.797 99.0242 170.501 98.5578 170.743 98.0051C170.984 97.4523 170.993 96.8046 171.299 96.2778C171.653 95.6689 172.331 95.3451 172.862 94.8874C174.209 93.7258 174.545 91.7696 174.494 89.9949C174.442 88.2201 174.097 86.4194 174.433 84.6749C174.636 83.604 175.094 82.6022 175.344 81.5442C175.594 80.4863 175.625 79.2988 175.033 78.3877C174.17 77.049 172.353 76.7856 170.768 76.6604C168.968 76.5049 167.358 76.7036 166.21 75.1879C165.671 74.397 165.065 73.6543 164.397 72.9684C164.168 72.7438 161.859 71.3188 161.859 71.2238Z" fill="#512E4E"/>
<path opacity="0.1" d="M114.942 162.285L110.431 153.943L109.002 166.815C109.002 166.815 109.797 172.532 109.637 173.409C109.477 174.285 112.892 182.145 112.892 182.145C112.892 182.145 124.171 202.241 128.777 203.278L144.338 192.154L140.211 186.912C140.211 186.912 138.783 186.355 138.424 186.912C138.424 186.912 130.762 173.724 129.968 172.77C129.174 171.815 129.329 169.911 129.329 169.911C129.329 169.911 128.138 168.642 128.535 167.45C128.932 166.258 126.234 162.125 126.234 162.125L128.695 159.824L114.942 162.285Z" fill="black"/>
<path d="M110.669 152.993L109.477 153.943L108.048 166.815C108.048 166.815 108.843 172.532 108.683 173.409C108.523 174.285 111.942 182.144 111.942 182.144C111.942 182.144 123.217 202.241 127.823 203.278L143.388 192.154L139.257 186.912C139.257 186.912 137.829 186.355 137.47 186.912C137.47 186.912 129.808 173.724 129.014 172.77C128.22 171.815 128.38 169.911 128.38 169.911C128.38 169.911 127.188 168.642 127.585 167.45C127.982 166.258 125.28 162.125 125.28 162.125L127.741 159.824L110.669 152.993Z" fill="white"/>
<path opacity="0.1" d="M184.599 203.42C185.462 204.469 184.918 209.181 184.918 209.181L182.535 213.127C182.535 213.127 182.678 215.675 182.687 219.108L178.681 220.36C178.319 220.473 177.935 220.498 177.561 220.433C177.188 220.367 176.835 220.213 176.533 219.984C176.231 219.754 175.988 219.456 175.825 219.114C175.662 218.771 175.583 218.395 175.594 218.015L176.285 195.729L185.63 199.305C184.836 199.858 185.708 201.213 185.708 201.213C185.708 201.213 183.727 202.371 184.599 203.42Z" fill="black"/>
<path d="M185.078 202.941C185.941 203.99 185.397 208.706 185.397 208.706L183.015 212.652C183.015 212.652 183.157 215.196 183.17 218.633L179.091 219.907C178.736 220.017 178.361 220.041 177.995 219.977C177.629 219.912 177.284 219.761 176.989 219.537C176.693 219.312 176.455 219.02 176.296 218.685C176.136 218.349 176.058 217.981 176.069 217.61L176.764 195.254L186.114 198.83C185.315 199.383 186.187 200.734 186.187 200.734C186.187 200.734 184.215 201.896 185.078 202.941Z" fill="white"/>
<path d="M188.173 192.318C188.173 192.318 187.538 196.373 185.95 196.61C184.361 196.848 183.649 203.17 182.065 202.945C180.481 202.721 181.53 197.068 181.586 195.971C181.642 194.874 179.859 190.332 181.193 189.3C182.527 188.268 186.748 189.3 186.748 189.3L188.173 192.318Z" fill="#CF6F80"/>
<path opacity="0.1" d="M191.553 161.093L194.549 155.048C194.549 155.048 195.74 159.656 195.74 162.117C195.74 164.578 197.406 164.82 197.406 164.82C197.406 164.82 199.232 166.979 198.269 168.551C197.307 170.123 196.918 174.035 196.918 174.035C196.918 174.035 197.233 181.501 195.805 182.533C194.376 183.565 194.078 186.031 194.078 186.031C194.078 186.031 191.454 190.716 191.536 191.83C191.618 192.944 187.884 200.488 187.884 200.488C187.884 200.488 189.71 191.113 179.069 187.063C179.069 187.063 178.987 183.88 179.781 183.008C180.576 182.136 181.815 181.739 181.038 177.33C180.261 172.921 180.813 167.653 180.813 166.595C180.813 165.537 183.196 158.939 183.196 158.939L191.553 161.093Z" fill="black"/>
<path d="M192.848 154.184L195.464 155.048C195.464 155.048 196.659 159.655 196.659 162.117C196.659 164.578 198.326 164.82 198.326 164.82C198.326 164.82 200.151 166.979 199.189 168.551C198.226 170.123 197.842 174.035 197.842 174.035C197.842 174.035 198.157 181.501 196.728 182.533C195.3 183.565 194.98 186.031 194.98 186.031C194.98 186.031 192.36 190.716 192.442 191.83C192.524 192.944 188.786 200.488 188.786 200.488C188.786 200.488 190.616 191.113 179.971 187.063C179.971 187.063 179.894 183.88 180.688 183.008C181.482 182.136 182.721 181.739 181.944 177.33C181.167 172.921 181.72 167.653 181.72 166.595C181.72 165.537 184.102 158.939 184.102 158.939L192.848 154.184Z" fill="white"/>
<path opacity="0.1" d="M135.07 310.878C135.07 310.878 139.24 308.257 141.977 310.161C144.714 312.065 135.07 310.878 135.07 310.878Z" fill="black"/>
<path opacity="0.1" d="M167.471 302.772C167.471 302.772 171.161 302.297 174.261 305.635C177.36 308.973 167.471 302.772 167.471 302.772Z" fill="black"/>
<g opacity="0.1">
<path opacity="0.1" d="M172.871 93.9417C172.34 94.3994 171.658 94.7276 171.304 95.3365C171.002 95.8589 170.993 96.5024 170.751 97.0637C170.509 97.6251 169.806 98.0828 169.318 97.7287C169.206 93.8424 167.289 90.1935 164.937 87.0844C164.279 86.1461 163.48 85.3158 162.567 84.6231C161.643 83.9282 160.493 83.6033 159.342 83.7119C158.047 83.889 156.908 84.7699 155.6 84.8779C153.873 85.0247 152.324 83.8285 150.61 83.7681C149.914 83.775 149.227 83.9308 148.595 84.225C147.964 84.5191 147.403 84.9449 146.95 85.4738C146.048 86.537 145.379 87.7769 144.985 89.114C144.307 91.1429 143.938 93.2624 143.889 95.4012C143.863 96.606 143.751 98.1087 142.637 98.5578C142.663 98.8768 142.663 99.1974 142.637 99.5164C143.76 99.0846 143.872 97.5646 143.898 96.3555C143.946 94.2166 144.315 92.0971 144.994 90.0683C145.388 88.7299 146.057 87.4886 146.958 86.4237C147.413 85.8963 147.974 85.4718 148.605 85.1785C149.236 84.8851 149.923 84.7296 150.619 84.7224C152.345 84.7829 153.899 85.9747 155.609 85.8322C156.904 85.7242 158.052 84.839 159.351 84.6663C160.502 84.5576 161.652 84.8825 162.576 85.5774C163.488 86.2701 164.288 87.1005 164.945 88.0388C167.298 91.1435 169.214 94.7837 169.327 98.6787C169.815 99.0371 170.518 98.5708 170.76 98.018C171.002 97.4653 171.01 96.8176 171.312 96.2908C171.666 95.6819 172.348 95.358 172.879 94.9003C174.226 93.7387 174.563 91.7826 174.511 90.0078C174.511 89.9517 174.511 89.8956 174.511 89.8437C174.429 91.381 174.019 92.9485 172.871 93.9417Z" fill="black"/>
<path opacity="0.1" d="M141.006 93.6351C140.013 92.5426 138.657 91.8128 137.747 90.6555C136.98 89.6311 136.542 88.3978 136.49 87.119C136.355 88.7171 136.801 90.3105 137.747 91.6055C138.657 92.7671 140.013 93.4969 141.006 94.5894C141.959 95.658 142.531 97.0126 142.633 98.4412C142.699 97.5718 142.589 96.6979 142.309 95.8721C142.03 95.0462 141.586 94.2854 141.006 93.6351Z" fill="black"/>
<path opacity="0.1" d="M175.353 80.5985C175.098 81.6565 174.645 82.6626 174.438 83.7292C174.315 84.4419 174.27 85.1658 174.304 85.8883C174.318 85.4767 174.363 85.0669 174.438 84.6619C174.645 83.591 175.098 82.5892 175.353 81.5312C175.501 80.9477 175.549 80.3432 175.495 79.7435C175.468 80.0316 175.421 80.3173 175.353 80.5985Z" fill="black"/>
</g>
<path opacity="0.1" d="M57.2941 328.435C80.5236 328.435 99.3549 325.41 99.3549 321.677C99.3549 317.945 80.5236 314.919 57.2941 314.919C34.0645 314.919 15.2332 317.945 15.2332 321.677C15.2332 325.41 34.0645 328.435 57.2941 328.435Z" fill="#0077B6"/>
<path d="M58.6495 192.219H55.943V253.178H58.6495V192.219Z" fill="#535461"/>
<path d="M75.6568 252.993L75.4885 255.739L75.2467 259.625L75.1475 261.24L74.91 265.127L74.8064 266.742L74.5647 270.628L71.8366 314.703C71.7181 316.6 70.8816 318.38 69.4975 319.681C68.1133 320.982 66.2856 321.707 64.3862 321.708H50.2019C48.303 321.707 46.4757 320.982 45.0923 319.681C43.7089 318.379 42.8733 316.599 42.7558 314.703L40.0407 270.598L39.7989 266.711L39.6996 265.096L39.4579 261.21L39.3586 259.595L39.1169 255.709L38.9442 252.962C38.9143 252.434 38.9925 251.905 39.1743 251.407C39.3561 250.91 39.6375 250.455 40.0012 250.071C40.365 249.686 40.8035 249.38 41.2898 249.171C41.7761 248.962 42.2999 248.855 42.8292 248.856H71.841C72.3682 248.86 72.8889 248.973 73.371 249.187C73.853 249.4 74.2862 249.711 74.6438 250.098C75.0013 250.486 75.2757 250.943 75.4499 251.44C75.6242 251.938 75.6946 252.467 75.6568 252.993Z" fill="#3F3D56"/>
<path d="M75.4884 255.739L75.2467 259.612H39.3414L39.0996 255.739H75.4884Z" fill="#9D9CB5"/>
<path d="M75.1474 261.227L74.91 265.105H39.6824L39.4406 261.227H75.1474Z" fill="#9D9CB5"/>
<path d="M74.8064 266.724L74.569 270.598H40.0234L39.7816 266.724H74.8064Z" fill="#9D9CB5"/>
<path d="M34.9687 215.066C50.7285 226.475 57.307 244.317 57.307 244.317C57.307 244.317 38.314 243.665 22.5498 232.257C6.78567 220.848 0.220139 203.01 0.220139 203.01C0.220139 203.01 19.2045 203.658 34.9687 215.066Z" fill="#0077B6"/>
<path d="M0.207214 203.01C0.207214 203.01 19.9254 213.956 26.2492 223.02C32.573 232.084 57.307 244.317 57.307 244.317" stroke="#535461" stroke-width="2" stroke-miterlimit="10"/>
<path d="M45.1429 192.085C53.7199 198.29 57.307 208.002 57.307 208.002C57.307 208.002 46.9688 207.648 38.3874 201.442C29.806 195.237 26.2276 185.521 26.2276 185.521C26.2276 185.521 36.5615 185.875 45.1429 192.085Z" fill="#0077B6"/>
<path d="M26.2276 185.521C26.2276 185.521 36.9586 191.48 40.3989 196.412C43.8392 201.343 57.307 208.002 57.307 208.002" stroke="#535461" stroke-width="2" stroke-miterlimit="10"/>
<path d="M69.7603 207.509C59.9056 218.344 57.8206 232.503 57.8206 232.503C57.8206 232.503 71.7157 229.092 81.5619 218.253C91.408 207.414 93.5015 193.259 93.5015 193.259C93.5015 193.259 79.6151 196.675 69.7603 207.509Z" fill="#0077B6"/>
<path d="M93.5102 193.264C93.5102 193.264 80.6727 204.37 77.4093 212.022C74.146 219.674 57.8206 232.503 57.8206 232.503" stroke="#535461" stroke-width="2" stroke-miterlimit="10"/>
<path d="M431.516 203.696C431.516 203.696 424.389 168.227 427.117 163.814C427.117 163.814 427.217 159.712 427.053 154.482C427.053 154.284 427.053 154.085 427.053 153.882C427.533 154.202 428.033 154.491 428.551 154.746C431.064 156.038 433.95 156.41 436.709 155.799L434.551 153.394C434.033 152.82 433.493 152.198 433.381 151.438C433.269 150.678 433.579 150 433.847 149.322C435.897 144.14 436.005 137.624 432.056 133.669C428.719 130.344 427.907 126.052 424.286 123.016C421.64 120.792 420.185 117.532 418.812 114.38C417.651 111.715 416.481 109.029 415.817 106.205C415.299 103.999 415.091 101.714 414.379 99.5596C413.667 97.4048 412.333 95.3105 410.248 94.3476C409.506 94.0064 408.681 93.8121 408.004 93.3587C407.114 92.7585 406.579 91.7826 405.936 90.9276C402.668 86.6094 391.726 89.1528 386.546 90.906C385.138 91.3475 383.834 92.0703 382.713 93.0305L382.76 92.9528C382.799 92.888 382.847 92.8233 382.89 92.7585C382.323 93.2171 381.833 93.7639 381.439 94.3778C380.684 95.5739 380.369 96.9687 379.739 98.2642C378.979 99.7971 374.753 104.076 376.57 105.799C376.698 105.915 376.844 106.008 377.002 106.076C377.684 106.36 378.435 106.435 379.16 106.292L379.083 106.477C378.462 107.997 378.144 109.624 378.146 111.266C378.146 118.361 383.995 124.113 391.216 124.113C392.574 124.114 393.924 123.906 395.218 123.495C395.248 123.659 395.274 123.823 395.304 123.987C395.304 124.052 395.326 124.117 395.334 124.182L395.106 124.501C395.094 124.482 395.081 124.463 395.067 124.445L388.29 133.919C387.254 134.649 381.288 138.967 380.952 142.206C380.598 145.751 380.244 149.901 380.244 149.901L380.196 150.79C379.9 151.038 379.554 151.218 379.181 151.319C378.808 151.42 378.418 151.438 378.038 151.373C375.923 151.028 375.923 159.146 375.923 159.146C375.923 159.146 374.516 160.441 373.549 159.319C372.582 158.196 370.026 162 370.026 162L354.012 162.691L353.645 162.713L352.782 160.04C352.689 159.758 352.488 159.524 352.224 159.389C351.96 159.254 351.653 159.229 351.37 159.319C351.303 159.341 351.238 159.368 351.176 159.401L351.115 159.435L351.003 159.513L350.947 159.565C350.916 159.593 350.887 159.623 350.861 159.655L350.809 159.716L350.783 159.742C350.683 159.88 350.617 160.039 350.59 160.207C350.563 160.375 350.576 160.547 350.628 160.709L351.37 163.002C348.279 163.624 345.12 165.377 347.697 170.205L334.635 167.791L338.861 171.34L360.677 175.844C360.387 176.362 360.577 177.114 361.479 178.172C365.364 182.736 372.444 183.975 375.293 184.295C376.045 185.979 376.985 187.572 378.094 189.045L377.848 193.592C377.848 193.592 370.635 228.25 369.314 230.007C369.981 229.251 370.591 228.447 371.14 227.602C369.046 234.722 366.12 244.469 365.351 245.928C364.117 248.26 362.973 257.695 364.38 258.3C364.812 258.485 366.046 258.395 367.808 258.261V259.042L367.73 288.661C367.73 288.661 368.084 306.827 367.113 308.559C366.141 310.29 365.882 313.922 365.882 313.922C365.882 313.922 361.997 321.086 358.92 323.966C358.899 323.988 358.876 324.009 358.851 324.026L358.756 323.353C358.756 323.353 355.056 328.025 346.872 327.762C346.872 327.762 341.947 330.966 349.251 331.138C356.554 331.311 365.882 330.879 365.882 330.879C365.882 330.879 372.396 320.948 377.852 322.243V329.77H379.523V322.122C380.298 321.612 380.961 320.95 381.472 320.175C381.983 319.401 382.332 318.531 382.497 317.618C382.64 316.677 382.535 315.715 382.193 314.827C381.851 313.939 381.283 313.155 380.546 312.553C380.215 312.253 379.949 311.889 379.765 311.481C379.582 311.074 379.485 310.633 379.48 310.187L379.419 310.239C379.419 310.087 379.38 309.932 379.363 309.772C378.884 305.886 378.284 297.867 380.403 291.934C383.308 283.798 384.189 272.468 382.074 265.723C381.391 263.566 380.831 261.374 380.395 259.155C380.343 258.874 380.296 258.606 380.252 258.356C381.698 258.551 383.13 258.84 384.539 259.219C389.438 260.571 400.156 260.821 409.307 260.748C409.329 260.998 409.355 261.262 409.385 261.525C409.548 263.356 409.889 265.167 410.404 266.932C411.552 270.386 412.079 285.616 412.079 285.616C412.079 285.616 413.559 298.139 412.752 303.234C412.32 306.067 411.889 308.913 411.643 311.771V311.828C411.643 311.828 409.217 318.737 407.443 322.489C407.399 322.584 407.352 322.679 407.309 322.77C406.836 322.813 406.37 322.916 405.923 323.076C405.923 323.076 403.545 327.826 401.175 328.612C398.805 329.398 399.591 331.985 404.956 331.035C410.322 330.085 418.424 329.308 418.424 329.308L418.774 324.463L420.422 322.398L419.991 327.23L421.748 326.885L421.515 321.008L424.212 317.631C424.212 317.631 427.471 314.729 422.628 309.021V309.146C422.576 309.064 422.529 308.978 422.473 308.896V308.87C421.67 307.626 421.031 305.307 422.201 301.192C424.316 293.756 425.546 287.007 425.546 287.007C425.546 287.007 430.269 268.927 424.592 260.372H424.843C424.261 259.169 423.85 257.89 423.621 256.572C423.592 256.417 423.566 256.257 423.543 256.093C427.743 255.851 431.866 255.091 435.228 253.45C435.215 253.433 433.191 210.528 431.516 203.696ZM378.193 173.772V173.858L377.33 173.901L378.193 173.772ZM375.232 174.182C375.09 174.213 374.957 174.277 374.844 174.367C374.473 174.893 374.239 175.503 374.166 176.142L372.819 175.84C372.819 175.84 371.874 175.637 370.514 175.408L369.871 174.76C371.641 174.614 373.48 174.398 375.232 174.182Z" fill="url(#paint1_linear_11_23)"/>
<path d="M419.792 321.068L419.279 327.187L421.001 326.842L420.742 320.205L419.792 321.068Z" fill="#1D2366"/>
<path d="M380.498 292.016C378.422 297.932 379.009 305.916 379.475 309.794C379.648 311.227 379.808 312.1 379.808 312.1C379.808 312.1 376.704 319.173 376.445 319.441C376.186 319.708 367.311 325.128 367.311 325.128L361.108 328.751C361.108 328.751 354.815 325.991 357.832 325.041C358.449 324.794 359.004 324.415 359.459 323.931C362.481 321.06 366.275 313.922 366.275 313.922C366.275 313.922 366.534 310.299 367.484 308.576C368.434 306.853 368.088 288.747 368.088 288.747L368.162 259.232V255.385L379.967 255.471C380.042 256.777 380.212 258.076 380.477 259.358C380.901 261.569 381.45 263.755 382.121 265.904C384.202 272.636 383.339 283.911 380.498 292.016Z" fill="#FFB0B1"/>
<path opacity="0.1" d="M379.808 312.1C379.808 312.1 376.704 319.173 376.445 319.441C376.186 319.708 367.311 325.128 367.311 325.128L361.108 328.75C361.108 328.75 354.815 325.991 357.832 325.041C358.449 324.794 359.004 324.415 359.459 323.931L359.727 325.818L361.795 325.732L379.493 309.802C379.648 311.227 379.808 312.1 379.808 312.1Z" fill="black"/>
<path d="M379.592 310.204L361.795 326.242L359.727 326.328L359.295 323.305C359.295 323.305 355.678 327.96 347.641 327.701C347.641 327.701 342.815 330.892 349.967 331.065C357.12 331.238 366.254 330.806 366.254 330.806C366.254 330.806 372.634 320.874 377.973 322.17V329.67H379.613V322.101C380.376 321.587 381.027 320.924 381.527 320.153C382.027 319.381 382.366 318.516 382.523 317.61C382.665 316.676 382.564 315.722 382.231 314.839C381.898 313.955 381.343 313.173 380.619 312.566C380.296 312.263 380.038 311.897 379.862 311.491C379.685 311.085 379.593 310.647 379.592 310.204Z" fill="#1D2366"/>
<path d="M421.433 301.239C420.284 305.342 420.91 307.652 421.696 308.891V308.917C422.704 310.447 423.404 312.159 423.759 313.956L423.828 314.345L415.73 326.155L411.336 327.883C411.336 327.883 404.27 325.469 405.561 324.778C405.884 324.609 406.389 323.711 406.968 322.472C408.694 318.737 411.077 311.845 411.077 311.845V311.789C411.327 308.943 411.725 306.106 412.165 303.282C412.955 298.199 411.504 285.724 411.504 285.724C411.504 285.724 410.986 270.555 409.864 267.104C409.357 265.35 409.021 263.551 408.858 261.733C408.625 259.573 408.573 257.794 408.573 257.794C408.573 257.794 413.227 251.317 421.756 258.313C422.438 258.871 423.039 259.522 423.539 260.247C429.431 268.633 424.687 287.106 424.687 287.106C424.687 287.106 423.5 293.825 421.433 301.239Z" fill="#FFB0B1"/>
<path opacity="0.1" d="M423.841 314.345L415.743 326.155L411.349 327.883C411.349 327.883 404.283 325.469 405.573 324.778C405.897 324.609 406.402 323.711 406.981 322.472C409.972 322.446 411.522 325.296 411.522 325.296L415.312 324.691C415.312 324.691 420.31 314.863 421.433 314.263C422.555 313.663 421.605 309.776 421.605 309.776V308.788C421.635 308.822 421.661 308.861 421.696 308.896V308.921C422.704 310.452 423.404 312.163 423.759 313.961L423.841 314.345Z" fill="black"/>
<path d="M411.781 325.551C411.781 325.551 409.622 321.587 405.487 323.051C405.487 323.051 403.161 327.801 400.834 328.569C398.507 329.338 399.284 331.929 404.542 330.983C409.799 330.037 417.725 329.256 417.725 329.256L418.07 324.424L423.414 317.614C423.414 317.614 426.6 314.725 421.86 309.038V310.027C421.86 310.027 422.81 313.913 421.687 314.514C420.565 315.114 415.584 324.946 415.584 324.946L411.781 325.551Z" fill="#1D2366"/>
<path opacity="0.1" d="M379.98 255.463C380.055 256.769 380.225 258.068 380.49 259.349C375.629 258.636 371.118 258.991 368.162 259.224V255.376L379.98 255.463Z" fill="black"/>
<path opacity="0.1" d="M424.018 261.322C424.018 261.322 417.112 261.659 408.876 261.728C408.643 259.569 408.591 257.79 408.591 257.79C408.591 257.79 413.244 251.313 421.774 258.308C422.456 258.866 423.056 259.517 423.556 260.243C423.69 260.611 423.844 260.971 424.018 261.322Z" fill="black"/>
<path d="M424.018 260.545C424.018 260.545 393.768 262.009 384.547 259.422C375.327 256.836 366.189 259.077 364.812 258.477C363.435 257.876 364.553 248.476 365.762 246.148C366.97 243.821 373.6 220.282 373.6 220.282L379.98 187.007L386.701 185.154L387.176 185.02L398.887 181.79L407.468 179.42C407.468 179.42 424.532 246.062 423.069 250.976C422.537 252.858 422.451 254.837 422.818 256.758C423.042 258.07 423.446 259.344 424.018 260.545Z" fill="#1D2366"/>
<path d="M357.741 164.25C357.741 164.25 351.698 170.727 356.274 174.337C360.849 177.947 363.858 174.683 363.858 174.683L357.741 164.25Z" fill="#78B3D3"/>
<path opacity="0.1" d="M357.741 164.25C357.741 164.25 351.698 170.727 356.274 174.337C360.849 177.947 363.858 174.683 363.858 174.683L357.741 164.25Z" fill="black"/>
<path d="M406.566 121.664C406.566 121.664 405.858 122.338 404.792 123.331C403.273 124.752 401.024 126.829 399.03 128.569C396.267 130.974 393.988 132.74 394.804 131.233C395.619 129.726 395.464 127.101 395.058 124.644C395.028 124.48 395.002 124.316 394.972 124.156C394.636 122.351 394.19 120.569 393.638 118.819C393.638 118.819 398.101 113.05 400.571 110.774C401.49 109.91 402.133 109.556 402.172 110.156C402.215 110.964 402.819 112.747 403.571 114.639C403.592 114.699 403.614 114.755 403.64 114.816C404.14 116.111 404.706 117.441 405.202 118.59C405.962 120.352 406.566 121.664 406.566 121.664Z" fill="#FFB0B1"/>
<path opacity="0.1" d="M403.64 114.816C403.22 117.072 402.202 119.175 400.693 120.904C399.183 122.633 397.237 123.925 395.058 124.644C394.715 122.673 394.241 120.727 393.638 118.819C393.638 118.819 402.042 107.958 402.172 110.156C402.202 110.99 402.858 112.838 403.64 114.816Z" fill="black"/>
<path opacity="0.1" d="M394.221 127.546L395.309 126.013C395.309 126.013 396.03 130.409 398.68 128.47C401.33 126.531 401.46 143.061 401.46 143.061L398.615 185.608L378.06 184.377L378.642 163.818L380.969 153.455L386.723 138.389L390.146 133.41L394.221 127.546Z" fill="black"/>
<path d="M401.46 143.324L398.87 181.795L398.598 185.871L387.137 185.185L386.706 185.159L378.072 184.64L378.655 164.077L380.982 153.714L386.736 138.648L390.159 133.669L394.234 127.783L395.322 126.255C395.322 126.255 396.042 130.65 398.693 128.712L398.749 128.673C401.339 127.032 401.46 143.324 401.46 143.324Z" fill="#1D2366"/>
<path d="M381.271 150.112C381.271 150.112 380.239 152.271 378.167 151.922C376.096 151.572 376.1 159.694 376.1 159.694C376.1 159.694 374.723 160.99 373.773 159.867C372.824 158.744 370.32 162.54 370.32 162.54L354.633 163.231C354.633 163.231 361.613 166.422 360.245 176.077C360.245 176.077 383.943 174.609 384.72 172.368C385.497 170.127 381.271 150.112 381.271 150.112Z" fill="white"/>
<path opacity="0.03" d="M381.271 150.112C381.271 150.112 380.239 152.271 378.167 151.922C376.096 151.572 376.1 159.694 376.1 159.694C376.1 159.694 374.723 160.99 373.773 159.867C372.824 158.744 370.32 162.54 370.32 162.54L354.633 163.231C354.633 163.231 361.613 166.422 360.245 176.077C360.245 176.077 383.943 174.609 384.72 172.368C385.497 170.127 381.271 150.112 381.271 150.112Z" fill="black"/>
<path d="M335.684 168.305L339.819 171.837L373.859 178.992L369.638 174.683L335.684 168.305Z" fill="white"/>
<path d="M394.286 128.906C393.72 129.769 392.101 134.191 390.75 138.052C389.624 141.269 388.683 144.097 388.683 144.097C388.683 144.097 386.486 158.408 385.363 160.994C384.241 163.581 384.85 173.668 384.85 173.668L380.667 198.579C380.667 198.579 378.772 211.426 375.845 219.099C372.957 226.652 369.741 230.193 369.642 230.305C370.937 228.552 377.995 194.032 377.995 194.032L380.326 150.497C380.326 150.497 380.667 146.36 381.012 142.823C381.357 139.287 388.35 134.459 388.35 134.459L395.093 124.868C395.771 125.775 395.317 127.356 394.286 128.906Z" fill="white"/>
<path d="M376.704 184.856C376.704 184.856 366.776 184.424 361.967 178.647C357.159 172.869 373.083 176.341 373.083 176.341L377.222 177.291L376.704 184.856Z" fill="#FFB0B1"/>
<path opacity="0.1" d="M423.069 250.98C422.537 252.862 422.451 254.842 422.818 256.762C411.988 257.531 400.402 254.603 400.402 254.603C398.244 256.59 392.559 259.517 392.559 259.517L389.46 221.086C387.478 215.904 386.701 188.756 386.701 188.756C386.701 188.756 386.878 187.335 387.133 185.206C387.133 185.154 387.133 185.098 387.155 185.046C387.927 179.1 389.46 167.938 390.211 166.431C391.247 164.358 387.025 158.844 387.025 158.844L388.946 142.456L389.179 140.479C393.228 138.669 396.332 132.892 396.332 132.892L398.714 128.716C401.304 127.053 401.438 143.346 401.438 143.346L398.848 181.816L407.43 179.446C407.43 179.446 424.532 246.066 423.069 250.98Z" fill="black"/>
<path d="M434.184 253.636C422.378 259.5 400.92 254.068 400.92 254.068C398.762 256.054 393.077 258.982 393.077 258.982L389.973 220.55C387.996 215.368 387.219 188.22 387.219 188.22C387.219 188.22 389.714 167.964 390.75 165.895C391.052 165.291 390.906 164.393 390.547 163.425C388.786 158.821 388.138 153.866 388.657 148.964L389.486 141.921L389.714 139.947C393.768 138.134 396.871 132.356 396.871 132.356L399.03 128.573L403.001 121.604L404.883 118.305L405.202 118.594L407.641 120.805C407.641 120.805 408.677 121.669 410.231 122.964C413.611 125.814 419.451 130.832 422.464 133.902C425.115 136.605 425.952 147.12 426.194 155.035C426.353 160.247 426.259 164.332 426.259 164.332C423.587 168.732 430.575 204.059 430.575 204.059C432.202 210.886 434.184 253.636 434.184 253.636Z" fill="white"/>
<path opacity="0.03" d="M411.522 132.27C411.522 132.27 403.419 147.699 404.36 153.563C405.301 159.427 407.978 166.064 406.687 167.614C406.244 168.201 405.67 168.678 405.012 169.007C404.354 169.336 403.629 169.508 402.893 169.51C401.598 169.596 398.145 172.01 398.145 172.269C398.145 172.528 394.955 172.528 392.101 173.737C389.248 174.946 385.035 175.633 385.035 175.633C385.035 175.633 376.834 175.374 376.07 176.151C375.306 176.928 374.52 181.579 376.156 185.288C377.792 188.997 379.609 191.765 380.982 192.271C382.355 192.776 391.065 189.857 398.132 189.166C405.198 188.475 412.868 182.874 412.868 182.874C412.868 182.874 421.316 179.852 422.797 174.769C424.277 169.687 420.988 141.752 420.988 141.752C420.988 141.752 418.502 128.733 411.522 132.27Z" fill="black"/>
<path opacity="0.03" d="M410.486 130.974C410.486 130.974 402.383 146.407 403.333 152.267C404.283 158.127 406.95 164.768 405.655 166.323C405.214 166.911 404.641 167.388 403.984 167.717C403.326 168.046 402.601 168.218 401.865 168.218C400.571 168.305 397.117 170.719 397.117 170.978C397.117 171.237 393.927 171.237 391.074 172.442C388.221 173.646 384.008 174.337 384.008 174.337C384.008 174.337 375.806 174.078 375.047 174.855C374.287 175.633 373.493 180.288 375.133 183.993C376.773 187.698 378.586 190.47 379.959 190.975C381.331 191.48 390.042 188.561 397.109 187.875C404.175 187.188 411.845 181.579 411.845 181.579C411.845 181.579 420.289 178.556 421.752 173.478C423.215 168.4 419.943 140.457 419.943 140.457C419.943 140.457 417.466 127.442 410.486 130.974Z" fill="black"/>
<path d="M411.267 131.492C411.267 131.492 403.165 146.926 404.114 152.785C405.064 158.645 407.732 165.286 406.441 166.837C405.999 167.426 405.426 167.904 404.768 168.234C404.109 168.564 403.383 168.736 402.647 168.737C401.352 168.823 397.899 171.237 397.899 171.492C397.899 171.746 394.713 171.751 391.855 172.96C388.998 174.169 384.789 174.855 384.789 174.855C384.789 174.855 376.588 174.596 375.824 175.374C375.06 176.151 374.274 180.806 375.91 184.511C377.546 188.216 379.363 190.988 380.736 191.493C382.109 191.999 390.819 189.079 397.886 188.389C404.952 187.698 412.622 182.097 412.622 182.097C412.622 182.097 421.07 179.074 422.551 173.992C424.031 168.909 420.764 140.975 420.764 140.975C420.764 140.975 418.243 127.977 411.267 131.492Z" fill="white"/>
<path opacity="0.1" d="M411.09 172.886C411.09 172.886 404.615 171.591 406.868 173.75C409.122 175.909 409.109 177.8 411.867 177.714C414.625 177.628 411.09 172.886 411.09 172.886Z" fill="black"/>
<path opacity="0.1" d="M422.033 219.341C422.033 219.341 419.106 221.323 424.705 225.892C430.303 230.46 422.033 219.341 422.033 219.341Z" fill="black"/>
<path opacity="0.1" d="M416.447 235.634C416.447 235.893 415.411 245.134 419.287 247.444C423.163 249.754 416.447 235.634 416.447 235.634Z" fill="black"/>
<path d="M354.901 163.209C351.776 163.317 345.025 164.272 348.525 170.805C351.62 176.587 356.822 172.722 359.749 169.79C359.035 167.057 357.3 164.701 354.901 163.209Z" fill="#FFB0B1"/>
<path d="M359.787 169.738L359.917 169.605L359.787 169.738Z" fill="#FFB0B1"/>
<path opacity="0.1" d="M410.231 123.227C406.916 125.494 404.136 127.407 403.592 127.805C402.107 128.906 399.276 135.37 397.45 138.669C395.995 141.325 391.268 142.007 389.485 142.176L389.714 140.202C393.768 138.389 396.871 132.611 396.871 132.611L404.883 118.56L407.641 121.068C407.641 121.068 408.677 121.932 410.231 123.227Z" fill="black"/>
<path d="M410.231 122.968C406.916 125.235 404.136 127.148 403.592 127.55C402.107 128.647 399.276 135.111 397.45 138.41C395.995 141.066 391.268 141.748 389.485 141.916L389.714 139.943C393.768 138.129 396.871 132.352 396.871 132.352L404.883 118.3L407.641 120.801C407.641 120.801 408.677 121.656 410.231 122.968Z" fill="#DCE7FF"/>
<path d="M403.851 111.966C403.853 114.558 403.067 117.089 401.598 119.225C399.863 121.749 397.28 123.568 394.319 124.35C391.358 125.133 388.215 124.828 385.459 123.491C382.704 122.154 380.519 119.872 379.301 117.061C378.083 114.25 377.913 111.096 378.821 108.17C379.729 105.244 381.656 102.74 384.251 101.114C386.847 99.4876 389.939 98.8457 392.967 99.3049C395.995 99.7642 398.758 101.294 400.755 103.617C402.752 105.94 403.851 108.902 403.851 111.966Z" fill="#FFB0B1"/>
<path opacity="0.1" d="M426.194 155.039C424.441 153.961 423.013 152.426 422.063 150.6C421.342 149.175 420.863 147.53 419.633 146.52C418.523 145.613 417.043 145.393 415.661 144.987C411.12 143.644 407.313 139.498 407.171 134.766C407.102 132.537 407.796 130.314 407.481 128.107C407.302 126.858 406.806 125.676 406.04 124.674C405.659 124.195 405.242 123.746 404.792 123.331C404.188 122.761 403.553 122.208 403.001 121.604C402.653 121.229 402.349 120.817 402.094 120.373C401.889 120.01 401.723 119.627 401.598 119.229C400.735 116.586 401.52 113.451 400.571 110.778L400.519 110.631C400.16 109.681 399.431 108.731 398.417 108.658C397.402 108.585 396.535 109.427 395.568 109.802C393.543 110.588 391.359 109.25 389.671 107.885C387.983 106.52 386.08 104.962 383.934 105.264C382.514 105.467 381.392 106.434 380.084 106.935C379.789 107.049 379.484 107.138 379.173 107.198C380.28 104.437 382.314 102.147 384.925 100.723C387.536 99.2985 390.561 98.8282 393.481 99.3928C396.401 99.9574 399.034 101.522 400.926 103.817C402.818 106.112 403.853 108.995 403.851 111.97C403.853 112.868 403.759 113.764 403.571 114.643C403.592 114.703 403.614 114.76 403.64 114.82C404.14 116.115 404.706 117.445 405.202 118.594L407.641 120.805C407.641 120.805 408.677 121.669 410.231 122.964C413.611 125.814 419.451 130.832 422.464 133.902C425.115 136.614 425.943 147.124 426.194 155.039Z" fill="black"/>
<path d="M379.933 99.0457C380.55 97.7892 380.857 96.3814 381.595 95.1896C382.678 93.4624 384.569 92.3569 386.511 91.6876C391.583 89.9387 402.302 87.3996 405.504 91.6876C406.135 92.5512 406.657 93.5098 407.529 94.1058C408.194 94.5592 408.997 94.7535 409.726 95.0946C411.768 96.0533 413.071 98.1432 413.766 100.276C414.461 102.41 414.669 104.698 415.178 106.896C415.83 109.716 416.974 112.389 418.113 115.045C419.456 118.18 420.88 121.431 423.47 123.646C427.005 126.669 427.787 130.948 431.067 134.265C434.952 138.203 434.827 144.702 432.824 149.862C432.561 150.54 432.263 151.248 432.366 151.969C432.47 152.69 433.005 153.347 433.51 153.921L435.634 156.318C430.61 157.531 424.925 154.906 422.585 150.298C421.864 148.873 421.385 147.232 420.151 146.217C419.046 145.311 417.561 145.095 416.184 144.689C411.643 143.341 407.835 139.192 407.693 134.459C407.624 132.235 408.319 130.011 408.004 127.809C407.828 126.552 407.33 125.362 406.558 124.354C405.371 122.804 403.579 121.764 402.612 120.036C400.976 117.147 402.219 113.395 401.041 110.295C400.678 109.345 399.953 108.395 398.939 108.321C397.924 108.248 397.057 109.09 396.086 109.465C394.065 110.251 391.881 108.917 390.193 107.548C388.506 106.179 386.602 104.625 384.452 104.931C383.032 105.13 381.914 106.097 380.606 106.603C379.639 106.974 377.68 107.306 376.834 106.49C375.047 104.845 379.186 100.583 379.933 99.0457Z" fill="#591D4B"/>
<path opacity="0.1" d="M423.785 148.873C423.06 147.448 422.585 145.807 421.351 144.797C420.246 143.89 418.761 143.67 417.379 143.264C412.843 141.921 409.035 137.771 408.889 133.038C408.82 130.814 409.515 128.586 409.204 126.384C409.023 125.135 408.525 123.953 407.758 122.951C406.566 121.401 404.775 120.36 403.812 118.633C402.176 115.748 403.42 111.996 402.237 108.891C401.879 107.945 401.149 106.995 400.139 106.918C399.129 106.84 398.253 107.691 397.286 108.066C395.266 108.852 393.077 107.514 391.394 106.149C389.71 104.785 387.798 103.226 385.652 103.528C384.232 103.731 383.11 104.698 381.806 105.199C380.839 105.57 378.875 105.907 378.029 105.091C376.251 103.364 380.391 99.1105 381.133 97.5819C381.75 96.321 382.057 94.9176 382.799 93.7257C382.838 93.661 382.881 93.5962 382.924 93.5314C382.369 93.9917 381.89 94.5367 381.504 95.1464C380.766 96.3382 380.46 97.7373 379.842 99.0025C379.096 100.531 374.956 104.798 376.739 106.512C377.602 107.332 379.545 106.995 380.511 106.624C381.806 106.119 382.937 105.152 384.358 104.953C386.516 104.646 388.415 106.205 390.099 107.57C391.782 108.934 393.983 110.273 395.995 109.487C396.962 109.111 397.808 108.265 398.844 108.343C399.88 108.42 400.571 109.366 400.946 110.316C402.125 113.417 400.881 117.169 402.517 120.058C403.484 121.755 405.276 122.817 406.463 124.376C407.235 125.383 407.733 126.573 407.909 127.831C408.224 130.033 407.529 132.257 407.598 134.481C407.74 139.231 411.548 143.363 416.089 144.71C417.457 145.116 418.951 145.332 420.056 146.239C421.294 147.254 421.782 148.895 422.49 150.32C424.83 154.927 430.515 157.553 435.539 156.339L434.538 155.208C430.182 155.273 425.775 152.794 423.785 148.873Z" fill="black"/>
<path opacity="0.1" d="M394.027 129.165C393.461 130.029 391.842 134.45 390.491 138.311C389.227 137.819 388.078 134.679 388.078 134.679L394.821 125.084C395.511 126.034 395.058 127.61 394.027 129.165Z" fill="black"/>
<path d="M394.285 128.906C393.72 129.769 392.101 134.191 390.75 138.052C389.485 137.564 388.337 134.42 388.337 134.42L395.08 124.829C395.77 125.775 395.317 127.356 394.285 128.906Z" fill="#DCE7FF"/>
<path d="M355.082 173.02L351.344 161.227C351.3 161.089 351.283 160.944 351.295 160.799C351.308 160.655 351.348 160.514 351.415 160.385C351.481 160.257 351.573 160.142 351.683 160.049C351.794 159.955 351.923 159.885 352.061 159.841C352.339 159.754 352.64 159.781 352.899 159.915C353.158 160.049 353.353 160.28 353.442 160.558L357.18 172.338L356.809 174.804L355.082 173.02Z" fill="#BE8B87"/>
<path opacity="0.1" d="M351.698 160.191C351.977 160.103 352.279 160.129 352.539 160.263C352.799 160.397 352.995 160.629 353.084 160.908L356.822 172.688L356.541 174.536L356.813 174.821L357.185 172.355L353.425 160.575C353.336 160.298 353.14 160.067 352.882 159.932C352.623 159.798 352.322 159.772 352.043 159.858C351.809 159.934 351.607 160.086 351.469 160.29C351.543 160.251 351.619 160.218 351.698 160.191Z" fill="white"/>
<path d="M355.082 173.02L357.18 172.355L356.874 174.376L356.809 174.821L356.196 174.182L355.082 173.02Z" fill="#EFC8C4"/>
<path d="M356.196 174.182C356.233 174.136 356.278 174.097 356.33 174.07C356.36 174.05 356.395 174.04 356.431 174.04C356.467 174.04 356.502 174.05 356.533 174.07C356.562 174.105 356.587 174.144 356.606 174.186C356.635 174.234 356.674 174.274 356.72 174.305C356.766 174.336 356.819 174.356 356.874 174.363L356.809 174.795L356.196 174.182Z" fill="#727A9C"/>
<path d="M351.323 165.416C351.323 165.416 358.82 165.373 357.055 168.564C355.29 171.755 352.531 172.139 352.531 172.139L351.323 165.416Z" fill="#FFB0B1"/>
<path d="M304.691 22.204H304.367C291.486 22.204 280.095 29.0224 273.542 39.0837C266.989 29.0224 255.598 22.204 242.717 22.204H242.394C232.727 22.2961 223.487 26.2009 216.682 33.0697C209.878 39.9384 206.057 49.2162 206.052 58.8868C206.052 70.8956 211.31 87.9351 221.562 101.956C241.094 128.673 273.542 152.047 273.542 152.047C273.542 152.047 305.99 128.677 325.518 101.956C335.774 87.9351 341.028 70.8956 341.028 58.8868C341.022 49.217 337.203 39.9398 330.399 33.0712C323.595 26.2025 314.356 22.2973 304.691 22.204ZM300.059 104.012C298.592 104.006 297.161 103.557 295.954 102.723C294.747 101.889 293.82 100.71 293.295 99.3393H285.594C285.087 99.3362 284.593 99.1747 284.182 98.8774C283.772 98.5802 283.464 98.1619 283.302 97.6812L280.936 90.5519L273.451 116.716C273.306 117.219 273 117.662 272.582 117.977C272.163 118.293 271.653 118.464 271.129 118.465H270.978C270.431 118.438 269.91 118.225 269.501 117.86C269.093 117.495 268.822 117.001 268.733 116.461L261.02 70.0492L255.382 97.5128C255.253 98.0345 254.953 98.4978 254.529 98.8289C254.106 99.16 253.584 99.3397 253.047 99.3393H242.199C241.874 99.3531 241.55 99.3009 241.245 99.1859C240.941 99.071 240.662 98.8955 240.428 98.6702C240.193 98.4449 240.006 98.1744 239.878 97.8749C239.75 97.5755 239.684 97.2532 239.684 96.9277C239.684 96.6021 239.75 96.2799 239.878 95.9804C240.006 95.6809 240.193 95.4104 240.428 95.1851C240.662 94.9598 240.941 94.7844 241.245 94.6694C241.55 94.5544 241.874 94.5022 242.199 94.516H251.148L259.133 57.5913C259.264 57.0454 259.581 56.562 260.029 56.2237C260.477 55.8855 261.028 55.7133 261.589 55.7368C262.15 55.7603 262.685 55.9778 263.103 56.3523C263.521 56.7268 263.796 57.235 263.882 57.79L271.759 105.134L278.467 81.7256C278.607 81.2325 278.902 80.7979 279.309 80.4866C279.716 80.1753 280.213 80.004 280.725 79.9983H280.772C281.28 79.9985 281.774 80.1588 282.185 80.4566C282.596 80.7544 282.902 81.1743 283.06 81.6565L287.338 94.5289H293.2C293.617 93.2622 294.375 92.1354 295.392 91.2727C296.408 90.41 297.643 89.8451 298.96 89.6403C300.278 89.4354 301.626 89.5987 302.856 90.1119C304.087 90.6252 305.151 91.4685 305.933 92.5489C306.714 93.6292 307.182 94.9045 307.285 96.2341C307.387 97.5637 307.121 98.8958 306.515 100.083C305.908 101.271 304.986 102.268 303.849 102.964C302.712 103.66 301.405 104.029 300.072 104.029L300.059 104.012Z" fill="#0077B6"/>
</g>
<defs>
<linearGradient id="paint0_linear_11_23" x1="153.813" y1="334.602" x2="153.813" y2="68.8877" gradientUnits="userSpaceOnUse">
<stop stop-color="#808080" stop-opacity="0.25"/>
<stop offset="0.54" stop-color="#808080" stop-opacity="0.12"/>
<stop offset="1" stop-color="#808080" stop-opacity="0.1"/>
</linearGradient>
<linearGradient id="paint1_linear_11_23" x1="96352.8" y1="200485" x2="96352.8" y2="64091.4" gradientUnits="userSpaceOnUse">
<stop stop-color="#808080" stop-opacity="0.25"/>
<stop offset="0.54" stop-color="#808080" stop-opacity="0.12"/>
<stop offset="1" stop-color="#808080" stop-opacity="0.1"/>
</linearGradient>
<clipPath id="clip0_11_23">
<rect width="477" height="338" fill="white"/>
</clipPath>
</defs>
</svg>
