<svg width="130" height="24" viewBox="0 0 130 24" fill="none" xmlns="http://www.w3.org/2000/svg">
<path d="M41.1378 19H43.9055V13.5923H49.5241V19H52.2855V5.90909H49.5241V11.3104H43.9055V5.90909H41.1378V19ZM58.9908 19.1918C61.4197 19.1918 63.0561 18.0092 63.4396 16.1875L60.9212 16.0213C60.6463 16.7692 59.9432 17.1591 59.0355 17.1591C57.674 17.1591 56.8111 16.2578 56.8111 14.794V14.7876H63.4972V14.0398C63.4972 10.7031 61.4773 9.05398 58.8821 9.05398C55.9929 9.05398 54.12 11.1058 54.12 14.1357C54.12 17.2486 55.9673 19.1918 58.9908 19.1918ZM56.8111 13.1001C56.8686 11.9815 57.7188 11.0866 58.9268 11.0866C60.1094 11.0866 60.9276 11.9304 60.9339 13.1001H56.8111ZM68.0739 19.1854C69.5249 19.1854 70.4645 18.5526 70.9439 17.6385H71.0206V19H73.603V12.3778C73.603 10.0384 71.6214 9.05398 69.4354 9.05398C67.0831 9.05398 65.5362 10.179 65.1591 11.9688L67.6776 12.1733C67.8629 11.5213 68.4446 11.0419 69.4226 11.0419C70.3494 11.0419 70.88 11.5085 70.88 12.3139V12.3523C70.88 12.9851 70.2088 13.0682 68.5021 13.2344C66.5589 13.4134 64.8139 14.0653 64.8139 16.2578C64.8139 18.201 66.201 19.1854 68.0739 19.1854ZM68.8537 17.3061C68.0163 17.3061 67.4155 16.9162 67.4155 16.1683C67.4155 15.4013 68.0483 15.0241 69.0071 14.8899C69.6016 14.8068 70.5732 14.6662 70.8991 14.4489V15.4908C70.8991 16.5199 70.049 17.3061 68.8537 17.3061ZM75.7156 19H78.4386V13.4453C78.4386 12.2372 79.3207 11.4062 80.5224 11.4062C80.8995 11.4062 81.4173 11.4702 81.6729 11.5533V9.13707C81.43 9.07955 81.0913 9.04119 80.8164 9.04119C79.717 9.04119 78.8157 9.6804 78.4577 10.8949H78.3555V9.18182H75.7156V19ZM88.7953 9.18182H86.948V6.82955H84.225V9.18182H82.8826V11.2273H84.225V16.3409C84.2122 18.2649 85.5225 19.2173 87.4977 19.1342C88.2008 19.1087 88.6994 18.968 88.9743 18.8786L88.546 16.8523C88.4118 16.8778 88.1241 16.9418 87.8684 16.9418C87.3251 16.9418 86.948 16.7372 86.948 15.983V11.2273H88.7953V9.18182ZM90.8311 19H93.5158V17.4276H93.6373C94.0144 18.2457 94.839 19.1598 96.4242 19.1598C98.6614 19.1598 100.406 17.3892 100.406 14.1037C100.406 10.7287 98.5847 9.05398 96.4306 9.05398C94.7878 9.05398 94.0016 10.032 93.6373 10.831H93.5542V5.90909H90.8311V19ZM93.4966 14.0909C93.4966 12.3395 94.2381 11.2209 95.5613 11.2209C96.91 11.2209 97.6259 12.3906 97.6259 14.0909C97.6259 15.804 96.8972 16.9929 95.5613 16.9929C94.2509 16.9929 93.4966 15.8423 93.4966 14.0909ZM106.698 19.1918C109.127 19.1918 110.763 18.0092 111.147 16.1875L108.628 16.0213C108.353 16.7692 107.65 17.1591 106.743 17.1591C105.381 17.1591 104.518 16.2578 104.518 14.794V14.7876H111.204V14.0398C111.204 10.7031 109.184 9.05398 106.589 9.05398C103.7 9.05398 101.827 11.1058 101.827 14.1357C101.827 17.2486 103.674 19.1918 106.698 19.1918ZM104.518 13.1001C104.576 11.9815 105.426 11.0866 106.634 11.0866C107.816 11.0866 108.635 11.9304 108.641 13.1001H104.518ZM115.781 19.1854C117.232 19.1854 118.172 18.5526 118.651 17.6385H118.728V19H121.31V12.3778C121.31 10.0384 119.328 9.05398 117.142 9.05398C114.79 9.05398 113.243 10.179 112.866 11.9688L115.385 12.1733C115.57 11.5213 116.152 11.0419 117.13 11.0419C118.056 11.0419 118.587 11.5085 118.587 12.3139V12.3523C118.587 12.9851 117.916 13.0682 116.209 13.2344C114.266 13.4134 112.521 14.0653 112.521 16.2578C112.521 18.201 113.908 19.1854 115.781 19.1854ZM116.561 17.3061C115.723 17.3061 115.123 16.9162 115.123 16.1683C115.123 15.4013 115.755 15.0241 116.714 14.8899C117.309 14.8068 118.28 14.6662 118.606 14.4489V15.4908C118.606 16.5199 117.756 17.3061 116.561 17.3061ZM128.645 9.18182H126.798V6.82955H124.075V9.18182H122.732V11.2273H124.075V16.3409C124.062 18.2649 125.372 19.2173 127.347 19.1342C128.05 19.1087 128.549 18.968 128.824 18.8786L128.396 16.8523C128.261 16.8778 127.974 16.9418 127.718 16.9418C127.175 16.9418 126.798 16.7372 126.798 15.983V11.2273H128.645V9.18182Z" fill="white"/>
<rect width="24" height="24" fill="white"/>
</svg>
